<?xml version="1.0" encoding="utf-8"?>
<!-- Generator: Adobe Illustrator 15.0.2, SVG Export Plug-In . SVG Version: 6.00 Build 0)  -->
<!DOCTYPE svg PUBLIC "-//W3C//DTD SVG 1.1//EN" "http://www.w3.org/Graphics/SVG/1.1/DTD/svg11.dtd">
<svg version="1.1" id="Layer_1" xmlns="http://www.w3.org/2000/svg" xmlns:xlink="http://www.w3.org/1999/xlink" x="0px" y="0px"
	 width="30.427px" height="21.163px" viewBox="0 0 30.427 21.163" enable-background="new 0 0 30.427 21.163" xml:space="preserve">
<path fill="#95a4b6" d="M30.427,2.016c0,1.112-0.865,2.013-1.931,2.013H1.93C0.865,4.029,0,3.126,0,2.016l0,0
	c0-1.112,0.865-2.014,1.93-2.014h26.564C29.562,0.002,30.427,0.906,30.427,2.016L30.427,2.016z"/>
<path fill="#95a4b6" d="M30.427,10.583c0,1.113-0.865,2.014-1.931,2.014H1.93C0.865,12.597,0,11.696,0,10.583l0,0
	c0-1.109,0.865-2.013,1.93-2.013h26.564C29.562,8.569,30.427,9.473,30.427,10.583L30.427,10.583z"/>
<path fill="#95a4b6" d="M30.427,19.149c0,1.112-0.865,2.014-1.931,2.014H1.93c-1.065,0-1.93-0.901-1.93-2.014l0,0
	c0-1.11,0.865-2.015,1.93-2.015h26.564C29.562,17.134,30.427,18.039,30.427,19.149L30.427,19.149z"/>
</svg>
