<svg xmlns="http://www.w3.org/2000/svg" viewBox="0 0 32 32"><title>ico-design-principles</title><g fill="none" fill-rule="evenodd" transform="translate(2 1)"><circle cx="14" cy="16" r="12.5" stroke="#23507A" stroke-width="3"/><path fill="#23507A" fill-rule="nonzero" d="M8.697 17.768l7.07-7.071 3.536 3.535-7.07 7.071-3.536-3.535zm4.596-1.06a1 1 0 1 0 1.414-1.415 1 1 0 0 0-1.414 1.414zM7.95 18.513l3.507 3.507h-.008l.004.004-3.832.325.324-3.832.004.003v-.007zM20.718 9.99c.78.78.817 2.01.08 2.747l-.797.798-3.536-3.536.798-.798c.736-.736 1.966-.7 2.747.081l.708.708z"/><path stroke="#23507A" stroke-width="3" d="M13.5 2l.001.037.097 1.392-1.381.197C6.1 4.499 1.5 9.76 1.5 16c0 6.904 5.596 12.5 12.5 12.5S26.5 22.904 26.5 16c0-6.24-4.601-11.501-10.717-12.374l-1.381-.197.097-1.392A.5.5 0 1 0 13.5 2z"/><path fill="#23507A" d="M14 7l-2-3h4zM14 25l2 3h-4zM23 16.5l3-2v4zM5 16.5l-3 2v-4z"/></g></svg>