<svg xmlns="http://www.w3.org/2000/svg" viewBox="17 -18 100 100"><path fill="#23507a" d="M112.8-11.8H21.2c-4.2 0-4.2 0-4.2 4.2v4.2C17 .8 17 .8 21.2.8h91.7c4.2 0 4.2 0 4.2-4.2v-4.2c-.1-4.2-.1-4.2-4.3-4.2zm0 25H54.5c-4.2 0-4.2 0-4.2 4.2v4.2c0 4.2 0 4.2 4.2 4.2h58.3c4.2 0 4.2 0 4.2-4.2v-4.2c0-4.2 0-4.2-4.2-4.2zm0 25H54.5c-4.2 0-4.2 0-4.2 4.2v4.2c0 4.2 0 4.2 4.2 4.2h58.3c4.2 0 4.2 0 4.2-4.2v-4.2c0-4.2 0-4.2-4.2-4.2zm-16.6 25h-75c-4.2 0-4.2 0-4.2 4.2v4.2c0 4.2 0 4.2 4.2 4.2h75c4.2 0 4.2 0 4.2-4.2v-4.2c-.1-4.2-.1-4.2-4.2-4.2zM17 12.8v38.3l22.5-18.8L17 12.8z"/></svg>