<svg xmlns="http://www.w3.org/2000/svg" viewBox="0 0 32 32"><title>ico-contact</title><g fill="none" fill-rule="evenodd"><circle cx="16" cy="16" r="12.5" stroke="#23507A" stroke-width="3"/><path fill="#23507A" fill-rule="nonzero" d="M11.404 17.06l5.657-5.656 3.535 3.535-5.657 5.657-3.535-3.535zm3.889-.353a1 1 0 1 0 1.414-1.414 1 1 0 0 0-1.414 1.414zm-4.635 1.1l3.507 3.507h-.008l.004.004-3.832.325.325-3.832.003.003v-.007zm11.353-7.11c.78.78.817 2.01.08 2.747l-.797.798-3.536-3.536.798-.798c.736-.736 1.966-.7 2.747.081l.708.708z"/><path stroke="#23507A" stroke-width="3" d="M15.501 2.037l.097 1.392-1.381.197C8.1 4.499 3.5 9.76 3.5 16c0 6.904 5.596 12.5 12.5 12.5S28.5 22.904 28.5 16c0-6.24-4.601-11.501-10.717-12.374l-1.381-.197.097-1.392a.5.5 0 1 0-.997 0z"/><path fill="#23507A" d="M16 7l-2-3h4zM16 25l2 3h-4zM25 16.5l3-2v4zM7 16.5l-3 2v-4z"/></g></svg>