<?xml version="1.0" encoding="utf-8"?>
<!-- Generator: Adobe Illustrator 21.1.0, SVG Export Plug-In . SVG Version: 6.00 Build 0)  -->
<svg version="1.1" id="Layer_1" xmlns="http://www.w3.org/2000/svg" xmlns:xlink="http://www.w3.org/1999/xlink" x="0px" y="0px"
	 viewBox="0 0 100 100" style="enable-background:new 0 0 100 100;" xml:space="preserve">
<g>
	<path fill="#23507a" d="M100,96.1c0,1.5-1.2,2.7-2.7,2.7H30.4c-1.5,0-2.7-1.2-2.7-2.7v-5.1h55.8c4.8,0,8.8-3.9,8.8-8.8V28.8h5.1
		c1.5,0,2.7,1.2,2.7,2.7C100,31.5,100,96.1,100,96.1z"/>
	<path fill="#23507a" d="M13.8,82.3v-5.1h7.8h3h3h42c4.8,0,8.8-3.9,8.8-8.8V28.8v-3v-3V15h5.1c1.5,0,2.7,1.2,2.7,2.7v5.1v3v3v53.5
		c0,1.5-1.2,2.7-2.7,2.7H27.6h-3h-3h-5.1C15,85,13.8,83.8,13.8,82.3z"/>
	<path fill="#23507a" d="M69.6,1.2H2.7C1.2,1.2,0,2.4,0,3.9v64.6c0,1.5,1.2,2.7,2.7,2.7h5.1h3h3h7.8h3h3h42c1.5,0,2.7-1.2,2.7-2.7V28.8v-3v-3V15v-3
		v-3V3.9C72.4,2.4,71.1,1.2,69.6,1.2z M65.9,38.1c1.1,1,1.2,2.8,0.2,3.9c-1,1.1-2.8,1.2-3.9,0.2l-7.4-6.8l-7.4,6.8
		c-1.1,1-2.7,1-3.8,0l-7.3-6.8l-7.4,6.8c-1.1,1-2.7,1-3.8,0l-7.4-6.8l-7.4,6.8c-1.1,1.1-2.8,1.1-3.9,0s-1.1-2.8,0-3.9
		c0.1-0.1,0.1-0.1,0.2-0.1l9.3-8.5c1.1-1,2.7-1,3.8,0l7.4,6.8l7.4-6.8c1.1-1,2.7-1,3.8,0l7.4,6.8l7.4-6.8c1.1-1,2.7-1,3.8,0
		L65.9,38.1z M65.9,51.7c1.1,1,1.2,2.8,0.2,3.9c-1,1.1-2.8,1.2-3.9,0.2L54.7,49l-7.4,6.8c-1.1,1-2.7,1-3.8,0L36.2,49l-7.4,6.8
		c-1.1,1-2.7,1-3.8,0L17.7,49l-7.4,6.8c-1.2,1-2.9,0.9-3.9-0.3c-0.9-1.1-0.9-2.7,0.1-3.8l9.3-8.5c1.1-1,2.7-1,3.8,0l7.4,6.8l7.4-6.8
		c1.1-1,2.7-1,3.8,0l7.4,6.8l7.4-6.8c1.1-1,2.7-1,3.8,0L65.9,51.7z M65.9,24.5c1.1,1,1.2,2.8,0.2,3.9c-1,1.1-2.8,1.2-3.9,0.2
		l-7.4-6.8l-7.4,6.8c-1.1,1-2.7,1-3.8,0l-7.3-6.8l-7.4,6.8c-1.1,1-2.7,1-3.8,0l-7.4-6.8l-7.4,6.8c-1.2,1-2.9,0.9-3.9-0.3
		c-0.9-1.1-0.9-2.7,0.1-3.8l9.3-8.5c1.1-1,2.7-1,3.8,0l7.4,6.8l7.4-6.8c1.1-1,2.7-1,3.8,0l7.4,6.8l7.4-6.8c1.1-1,2.7-1,3.8,0
		L65.9,24.5z"/>
</g>
</svg>
