<?xml version="1.0" encoding="iso-8859-1"?>
<!-- Generator: Adobe Illustrator 16.0.0, SVG Export Plug-In . SVG Version: 6.00 Build 0)  -->
<!DOCTYPE svg PUBLIC "-//W3C//DTD SVG 1.1//EN" "http://www.w3.org/Graphics/SVG/1.1/DTD/svg11.dtd">
<svg version="1.1" id="Capa_1" xmlns="http://www.w3.org/2000/svg" xmlns:xlink="http://www.w3.org/1999/xlink" x="0px" y="0px"
	 width="377.184px" height="377.184px" viewBox="0 0 377.184 377.184" style="enable-background:new 0 0 377.184 377.184;"
	 xml:space="preserve">
<g>
	<g>
		<path fill="#23507a" d="M222.366,243.42c-6.845-6.167-15.188-11.079-23.562-15.056c-20.083-9.547-40.729-17.858-60.848-27.291
			c-55.917-26.217-91.683-85.812-51.002-156.833L27.41,57.812C8.43,62.132-3.443,81.03,0.894,100.009L57.8,349.761
			c4.337,18.979,23.218,30.854,42.229,26.531l24.8-5.655c0-0.146,0-0.279,0-0.411c-16.391-7.271-31.792-14.115-48.332-21.454
			c9.746-23.149,18.964-45.031,28.727-68.25c6.2,3.693,10.569,6.445,15.055,8.971c26.351,14.742,54.251,21.587,84.458,16.521
			c13.983-2.322,26.056-7.438,30.046-22.871C238.839,267.399,233.976,253.875,222.366,243.42z"/>
		<path fill="#23507a" d="M376.296,277.175L319.375,27.422c-4.337-18.98-23.218-30.853-42.214-26.532l-35.521,8.097
			c0.032,0.016,0.032,0.033,0.032,0.033c17.281,5.624,32.256,10.042,46.617,15.781c3.81,1.517,12.681,5.046,12.681,5.046
			s-17.645,45.792-25.132,67.51c-28.229-22.558-54.941-28.659-85.729-24.109c-13.206,1.946-26.102,10.967-29.977,24.702
			c-4.039,14.395,0.974,25.658,12.979,33.425c8.821,5.688,18.302,10.555,27.932,14.725c18.832,8.18,38.289,14.89,56.89,23.482
			c45.843,21.172,69.456,56.688,65.366,107.905c-1.188,14.811-5.54,32.389-9.433,49.687c0.101,0.114,0.165,0.215,0.229,0.312
			l35.649-8.111C368.746,315.052,380.618,296.154,376.296,277.175z"/>
	</g>
</g>
<g>
</g>
<g>
</g>
<g>
</g>
<g>
</g>
<g>
</g>
<g>
</g>
<g>
</g>
<g>
</g>
<g>
</g>
<g>
</g>
<g>
</g>
<g>
</g>
<g>
</g>
<g>
</g>
<g>
</g>
</svg>
