<?xml version="1.0" encoding="utf-8"?>
<!-- Generator: Adobe Illustrator 21.1.0, SVG Export Plug-In . SVG Version: 6.00 Build 0)  -->
<svg version="1.1" id="Layer_1" xmlns="http://www.w3.org/2000/svg" xmlns:xlink="http://www.w3.org/1999/xlink" x="0px" y="0px"
	 viewBox="0 0 100 100" style="enable-background:new 0 0 100 100;" xml:space="preserve">
<path fill="#23507a" class="st0" d="M92,47.4c-2.2-3.8-5.3-6.9-9.2-9.1c-2.9-1.7-5.9-2.8-9.3-3.2V22.9c3.4-1.4,5.5-4.6,5.5-8.4
	c0-5.1-4.1-9.2-9.1-9.2c-5.1,0-9.2,4.1-9.2,9.2c0,3.7,2,6.9,5.4,8.4V35c-2.7,0.4-5.5,1.2-8.1,2.5c-5.3-4-22.5-17.1-32.5-24.7
	c0.2-0.9,0.4-1.7,0.4-2.7C25.8,4.6,21.3,0,15.7,0S5.5,4.6,5.5,10.2c0,5.6,4.6,10.2,10.2,10.2c1.9,0,3.7-0.6,5.2-1.5l2.1,1.6l29.2,21
	c-1.5,1.4-3,3-4.1,4.8c-2.3,3.7-3.8,7.7-3.8,12.2v0.9c0,3.1,0.6,6,1.6,8.8c0.9,2.4,2.2,4.6,3.8,6.6L40,84.6
	c-2.9-1.1-6.1-0.4-8.3,1.8c-1.5,1.5-2.3,3.5-2.3,5.6c0,2.1,0.8,4.1,2.3,5.6c1.5,1.5,3.5,2.3,5.6,2.3c2.1,0,4.1-0.8,5.6-2.3
	c1.5-1.5,2.3-3.5,2.3-5.6c0-0.8-0.1-1.6-0.4-2.4l10-10c1.4,0.9,2.9,1.7,4.5,2.4c3.1,1.4,6.6,2.2,10.4,2.2h0.7c4.2,0,8.2-1,11.9-3
	c3.9-2.1,7-5.1,9.3-8.8c2.3-3.7,3.6-7.9,3.6-12.4v-0.2C95.2,55.3,94.2,51.2,92,47.4L92,47.4z M79.8,68.4c-2.7,3-5.8,4.9-9.4,4.9
	h-0.6c-2,0-4-0.6-5.9-1.6c-2.2-1.1-3.8-2.7-5.2-4.7c-1.4-2-2.2-4.1-2.2-6.4v-0.7c0-2.3,0.4-4.4,1.5-6.4c1.2-2.2,2.7-3.9,4.8-5.3
	c2.1-1.4,4.3-2,6.7-2h0.2c2.2,0,4.3,0.4,6.3,1.5c2,1.1,3.7,2.6,4.9,4.5c1.2,1.9,2,4,2.2,6.3c0,0.5,0.1,1,0.1,1.4
	C83.4,63,82.2,65.8,79.8,68.4L79.8,68.4z"/>
</svg>
