<svg xmlns="http://www.w3.org/2000/svg" viewBox="0 0 32 32"><g fill="#23507A"><path d="m16.494 1.36 12.46 5.648-5.933 2.973-6.798-3.07a.497.497 0 0 0-.427-.002L9.033 9.98l-6.03-2.973 12.67-5.651a1 1 0 0 1 .82.002zM8.05 21.755a.508.508 0 0 0 .119.17c.049.037.074.054.1.069l6.765 2.764v5.62l-12.437-5.47A1 1 0 0 1 2 23.993V9l6.008 2.828v9.739a.653.653 0 0 0 .043.188z"/><path d="M14.4 16.388 10 18.114l.03-6.076a1 1 0 0 1 .595-.909l4.41-1.955v6.284a1 1 0 0 1-.636.93zM17.613 16.257l4.421 1.857-.03-6.076a1 1 0 0 0-.595-.909L17 9.174v6.161a1 1 0 0 0 .613.922zM16.378 18.126l5.693 2.293-5.67 2.45a1 1 0 0 1-.8-.004l-5.53-2.446 5.552-2.29a1 1 0 0 1 .755-.003z"/><path d="M23.984 21.755a.508.508 0 0 1-.118.17.815.815 0 0 1-.101.069L17 24.758v5.62l12.437-5.47a1 1 0 0 0 .597-.915V9l-6.007 2.854v9.713a.653.653 0 0 1-.043.188z"/></g></svg>