<svg xmlns="http://www.w3.org/2000/svg" viewBox="0 0 64 64"><path fill="#23507a" d="M47 .5H17c-1.2 0-2.1 1-2.1 2.1v58.8c0 1.2 1 2.1 2.1 2.1h30c1.2 0 2.1-1 2.1-2.1V2.6c0-1.2-1-2.1-2.1-2.1zM35.7 3.1c.6 0 1.1.5 1.1 1.1s-.5 1.1-1.1 1.1-1.1-.5-1.1-1.1.6-1.1 1.1-1.1zm-8.5.6H32c.3 0 .5.2.5.5s-.2.6-.5.6h-4.8c-.3 0-.5-.2-.5-.5s.2-.6.5-.6zM32 60.9c-1.5 0-2.7-1.2-2.7-2.7 0-1.5 1.2-2.7 2.7-2.7 1.5 0 2.7 1.2 2.7 2.7 0 1.5-1.2 2.7-2.7 2.7zm-13.9-8.1V8h27.8v44.9H18.1zM57.1 12.2h-5.9v7.5H56v31h-4.8v9.6h5.9c1.2 0 2.1-1 2.1-2.1V14.4c0-1.2-.9-2.2-2.1-2.2zM12.8 19.7v-7.5H6.9c-1.2 0-2.1 1-2.1 2.1v43.8c0 1.2 1 2.1 2.1 2.1h5.9v-9.6H8v-31h4.8z"/><path fill="#23507a" d="M31.8 27.9c0 .3-.3.6-.7.6h-2.5c-.3 0-.5-.1-.6-.2-.1-.1-1-.8-1.3-1l-.8 2.9-.1.3s2.2 1.9 2.2 2c.2.3.3.5.5 1.2.1.7.4 2.8.4 3.2.1.5-.1 1-.5 1.1-.5.1-.9-.2-1-.7-.1-.5-.6-3.6-.6-3.6l-2.5-1.8s-.7 2.2-.8 2.4c-.1.2-.1.3-.3.6l-2.9 2.9c-.2.2-.5.3-.8.3-.3-.1-.6-.4-.6-.7 0-.3.1-.6.3-.7l2.5-2.5 1-3.9 1-3.2.4-1.2c.3-.8 1.1-1.1 1.8-.9.7.2.9.4 1.3.8 0 0 1.6 1.5 1.7 1.5l.1.1h2.2c.2-.2.5.1.6.5z"/><circle fill="#23507a" cx="26.3" cy="23.2" r="1.4"/><path fill="#23507a" d="M43.4 31v-1l1.8-1.1-1-2.5-2 .5v.1c-.2-.3-.5-.5-.7-.7h.1l.4-2-2.5-1-1.3 1.7h-1l-1.1-1.8-2.5 1 .5 2c-.2.2-.5.4-.7.7l-2-.4-.5 1.3-.5 1.2 1.8 1.1v.9l-1.7 1.1 1 2.5 2-.5c.2.2.4.5.7.7l-.4 2 1.3.5 1.3.5 1.1-1.7h.9l1.1 1.7 2.5-1-.5-2c.2-.2.5-.4.6-.7l2 .4.5-1.3.5-1.3-1.7-.9zm-5.6 2.5c-1.6 0-2.9-1.3-2.9-2.9s1.3-2.9 2.9-2.9 2.9 1.3 2.9 2.9-1.3 2.9-2.9 2.9z"/></svg>