<svg xmlns="http://www.w3.org/2000/svg" xmlns:xlink="http://www.w3.org/1999/xlink" version="1.1" x="0px" y="0px" viewBox="0 0 72 72" enable-background="new 0 0 72 72" xml:space="preserve"><g><path fill="#23507a" d="M69.8,0.5H2.2c-0.9,0-1.7,0.8-1.7,1.7v67.6c0,0.9,0.8,1.7,1.7,1.7h67.6c0.9,0,1.7-0.8,1.7-1.7V2.2   C71.5,1.3,70.7,0.5,69.8,0.5z M25,4.5c1.2,0,2.1,0.9,2.1,2.1c0,1.2-0.9,2.1-2.1,2.1c-1.2,0-2.1-0.9-2.1-2.1   C22.9,5.4,23.8,4.5,25,4.5z M16.1,4.5c1.2,0,2.1,0.9,2.1,2.1c0,1.2-0.9,2.1-2.1,2.1S14,7.8,14,6.6C14,5.4,15,4.5,16.1,4.5z    M7.3,4.5c1.2,0,2.1,0.9,2.1,2.1c0,1.2-0.9,2.1-2.1,2.1c-1.2,0-2.1-0.9-2.1-2.1C5.2,5.4,6.1,4.5,7.3,4.5z M66.5,64.8   c0,0.9-0.8,1.7-1.7,1.7H7.2c-0.9,0-1.7-0.8-1.7-1.7V16.5c0-0.9,0.8-1.7,1.7-1.7h57.6c0.9,0,1.7,0.8,1.7,1.7V64.8z"></path><path fill="#23507a" d="M36,28.2c-13.4,0-24.3,10.6-24.8,23.9c0,0.5,0.4,0.9,0.8,0.9h18.2c0.1,0,0.3-0.1,0.3-0.2c0.3-2.1,1.7-3.8,3.6-4.4   c0.2-0.1,0.3-0.2,0.4-0.5l1.2-15.1c0-0.3,0.5-0.3,0.5,0l1.2,15.1c0,0.2,0.2,0.4,0.4,0.5c1.9,0.7,3.3,2.4,3.6,4.4   c0,0.1,0.1,0.2,0.3,0.2h18.2c0.5,0,0.9-0.4,0.8-0.9C60.3,38.8,49.4,28.2,36,28.2z"></path></g></svg>