<svg xmlns="http://www.w3.org/2000/svg" viewBox="0 0 32 32"><title>ico-design-principles</title><g fill="#23507A" fill-rule="evenodd"><path d="M14 3a2 2 0 1 1 3.995.141C24.782 4.11 30 9.945 30 17c0 7.732-6.268 14-14 14S2 24.732 2 17C2 9.945 7.218 4.11 14.005 3.141A2.03 2.03 0 0 1 14 3zm2 25c6.075 0 11-4.925 11-11S22.075 6 16 6 5 10.925 5 17s4.925 11 11 11z"/><path fill-rule="nonzero" d="M10.697 18.768l7.07-7.071 3.536 3.535-7.07 7.071-3.536-3.535zm4.596-1.06a1 1 0 1 0 1.414-1.415 1 1 0 0 0-1.414 1.414zM9.95 19.513l3.507 3.507h-.008l.004.004-3.832.325.324-3.832.004.003v-.007zm12.767-8.524c.78.78.817 2.01.08 2.747l-.797.798-3.536-3.536.798-.798c.736-.736 1.966-.7 2.747.081l.708.708z"/><path d="M16 8l-2-3h4zM16 26l2 3h-4zM25 17.5l3-2v4zM7 17.5l-3 2v-4z"/></g></svg>