<svg xmlns="http://www.w3.org/2000/svg" viewBox="0 0 72 72"><g fill="#23507a"><path d="M69.8.5H2.2C1.3.5.5 1.3.5 2.2v67.6c0 .9.8 1.7 1.7 1.7h67.6c.9 0 1.7-.8 1.7-1.7V2.2c0-.9-.8-1.7-1.7-1.7zM25 4.5c1.2 0 2.1.9 2.1 2.1 0 1.2-.9 2.1-2.1 2.1-1.2 0-2.1-.9-2.1-2.1 0-1.2.9-2.1 2.1-2.1zm-8.9 0c1.2 0 2.1.9 2.1 2.1 0 1.2-.9 2.1-2.1 2.1S14 7.8 14 6.6c0-1.2 1-2.1 2.1-2.1zm-8.8 0c1.2 0 2.1.9 2.1 2.1 0 1.2-.9 2.1-2.1 2.1-1.2 0-2.1-.9-2.1-2.1 0-1.2.9-2.1 2.1-2.1zm59.2 60.3c0 .9-.8 1.7-1.7 1.7H7.2c-.9 0-1.7-.8-1.7-1.7V16.5c0-.9.8-1.7 1.7-1.7h57.6c.9 0 1.7.8 1.7 1.7v48.3z"/><path d="M36 28.2c-13.4 0-24.3 10.6-24.8 23.9 0 .5.4.9.8.9h18.2c.1 0 .3-.1.3-.2.3-2.1 1.7-3.8 3.6-4.4.2-.1.3-.2.4-.5l1.2-15.1c0-.3.5-.3.5 0l1.2 15.1c0 .2.2.4.4.5 1.9.7 3.3 2.4 3.6 4.4 0 .1.1.2.3.2h18.2c.5 0 .9-.4.8-.9-.4-13.3-11.3-23.9-24.7-23.9z"/></g></svg>