<svg xmlns="http://www.w3.org/2000/svg" xmlns:xlink="http://www.w3.org/1999/xlink" version="1.1" x="0px" y="0px" viewBox="17 -18 100 100" enable-background="new 17 -18 100 100" xml:space="preserve"><path fill="#23507a" d="M112.8-11.8H21.2c-4.2,0-4.2,0-4.2,4.2v4.2c0,4.2,0,4.2,4.2,4.2h91.7c4.2,0,4.2,0,4.2-4.2v-4.2  C117-11.8,117-11.8,112.8-11.8z M112.8,13.2H54.5c-4.2,0-4.2,0-4.2,4.2v4.2c0,4.2,0,4.2,4.2,4.2h58.3c4.2,0,4.2,0,4.2-4.2v-4.2  C117,13.2,117,13.2,112.8,13.2z M112.8,38.2H54.5c-4.2,0-4.2,0-4.2,4.2v4.2c0,4.2,0,4.2,4.2,4.2h58.3c4.2,0,4.2,0,4.2-4.2v-4.2  C117,38.2,117,38.2,112.8,38.2z M96.2,63.2h-75c-4.2,0-4.2,0-4.2,4.2v4.2c0,4.2,0,4.2,4.2,4.2h75c4.2,0,4.2,0,4.2-4.2v-4.2  C100.3,63.2,100.3,63.2,96.2,63.2z M17,12.8v38.3l22.5-18.8L17,12.8z"></path></svg>