<svg xmlns="http://www.w3.org/2000/svg" viewBox="0 0 100 100"><path fill="#23507a" class="st0" d="M92 47.4c-2.2-3.8-5.3-6.9-9.2-9.1-2.9-1.7-5.9-2.8-9.3-3.2V22.9c3.4-1.4 5.5-4.6 5.5-8.4 0-5.1-4.1-9.2-9.1-9.2-5.1 0-9.2 4.1-9.2 9.2 0 3.7 2 6.9 5.4 8.4V35c-2.7.4-5.5 1.2-8.1 2.5-5.3-4-22.5-17.1-32.5-24.7.2-.9.4-1.7.4-2.7C25.8 4.6 21.3 0 15.7 0S5.5 4.6 5.5 10.2s4.6 10.2 10.2 10.2c1.9 0 3.7-.6 5.2-1.5l2.1 1.6 29.2 21c-1.5 1.4-3 3-4.1 4.8-2.3 3.7-3.8 7.7-3.8 12.2v.9c0 3.1.6 6 1.6 8.8.9 2.4 2.2 4.6 3.8 6.6L40 84.6c-2.9-1.1-6.1-.4-8.3 1.8-1.5 1.5-2.3 3.5-2.3 5.6 0 2.1.8 4.1 2.3 5.6 1.5 1.5 3.5 2.3 5.6 2.3 2.1 0 4.1-.8 5.6-2.3 1.5-1.5 2.3-3.5 2.3-5.6 0-.8-.1-1.6-.4-2.4l10-10c1.4.9 2.9 1.7 4.5 2.4 3.1 1.4 6.6 2.2 10.4 2.2h.7c4.2 0 8.2-1 11.9-3 3.9-2.1 7-5.1 9.3-8.8 2.3-3.7 3.6-7.9 3.6-12.4v-.2c0-4.5-1-8.6-3.2-12.4zm-12.2 21c-2.7 3-5.8 4.9-9.4 4.9h-.6c-2 0-4-.6-5.9-1.6-2.2-1.1-3.8-2.7-5.2-4.7-1.4-2-2.2-4.1-2.2-6.4v-.7c0-2.3.4-4.4 1.5-6.4 1.2-2.2 2.7-3.9 4.8-5.3 2.1-1.4 4.3-2 6.7-2h.2c2.2 0 4.3.4 6.3 1.5s3.7 2.6 4.9 4.5c1.2 1.9 2 4 2.2 6.3 0 .5.1 1 .1 1.4.2 3.1-1 5.9-3.4 8.5z"/></svg>