<?xml version="1.0" encoding="UTF-8"?>
<svg width="80px" height="60px" viewBox="0 0 80 60" version="1.1" xmlns="http://www.w3.org/2000/svg" xmlns:xlink="http://www.w3.org/1999/xlink">
    <!-- Generator: Sketch 47.1 (45422) - http://www.bohemiancoding.com/sketch -->
    <title>noun_1468315</title>
    <desc>Created with Sketch.</desc>
    <defs></defs>
    <g id="Page-1" stroke="none" stroke-width="1" fill="none" fill-rule="evenodd">
        <g id="noun_1468315" fill-rule="nonzero" fill="#23507A">
            <path d="M18.333,9.714 L13.62,5 L0.977,17.644 C-0.325,18.946 -0.325,21.058 0.977,22.357 L13.62,35 L18.333,30.286 L8.047,20 L18.333,9.714 Z" id="Shape"></path>
            <path d="M61.667,30.286 L66.38,35.003 L79.024,22.357 C80.326,21.055 80.326,18.946 79.024,17.644 L66.38,5 L61.667,9.714 L71.953,20 L61.667,30.286 Z" id="Shape"></path>
            <path d="M63.737,42.93 L50,29.192 L50,6.667 L56.667,6.667 L56.667,0 L23.333,0 L23.333,6.667 L30,6.667 L30,29.192 L16.263,42.93 C14.453,44.74 13.333,47.24 13.333,50 C13.333,55.521 17.81,60 23.333,60 L56.667,60 C62.19,60 66.667,55.521 66.667,50 C66.667,47.239 65.547,44.739 63.737,42.93 Z M43.333,23.333 L36.667,23.333 L36.667,6.667 L43.333,6.667 L43.333,23.333 Z" id="Shape"></path>
        </g>
    </g>
</svg>