<?xml version="1.0" encoding="utf-8"?>
<!-- Generator: Adobe Illustrator 21.1.0, SVG Export Plug-In . SVG Version: 6.00 Build 0)  -->
<svg version="1.1" id="Layer_1" xmlns="http://www.w3.org/2000/svg" xmlns:xlink="http://www.w3.org/1999/xlink" x="0px" y="0px"
	 viewBox="0 0 64 64" style="enable-background:new 0 0 64 64;" xml:space="preserve">
<path fill="#23507a" d="M47,0.5H17c-1.2,0-2.1,1-2.1,2.1v58.8c0,1.2,1,2.1,2.1,2.1H47c1.2,0,2.1-1,2.1-2.1V2.6C49.1,1.4,48.1,0.5,47,0.5z M35.7,3.1
	c0.6,0,1.1,0.5,1.1,1.1s-0.5,1.1-1.1,1.1s-1.1-0.5-1.1-1.1S35.2,3.1,35.7,3.1z M27.2,3.7H32c0.3,0,0.5,0.2,0.5,0.5S32.3,4.8,32,4.8
	h-4.8c-0.3,0-0.5-0.2-0.5-0.5S26.9,3.7,27.2,3.7z M32,60.9c-1.5,0-2.7-1.2-2.7-2.7c0-1.5,1.2-2.7,2.7-2.7c1.5,0,2.7,1.2,2.7,2.7
	C34.7,59.7,33.5,60.9,32,60.9z M18.1,52.8V8h27.8v44.9H18.1z"/>
<path fill="#23507a" d="M57.1,12.2h-5.9v7.5H56v31h-4.8v9.6h5.9c1.2,0,2.1-1,2.1-2.1V14.4C59.2,13.2,58.3,12.2,57.1,12.2z"/>
<path fill="#23507a" d="M12.8,19.7v-7.5H6.9c-1.2,0-2.1,1-2.1,2.1v43.8c0,1.2,1,2.1,2.1,2.1h5.9v-9.6H8v-31H12.8z"/>
<path fill="#23507a" d="M31.8,27.9c0,0.3-0.3,0.6-0.7,0.6c-0.2,0-2.3,0-2.5,0c-0.3,0-0.5-0.1-0.6-0.2c-0.1-0.1-1-0.8-1.3-1l-0.8,2.9l-0.1,0.3
	c0,0,2.2,1.9,2.2,2c0.2,0.3,0.3,0.5,0.5,1.2c0.1,0.7,0.4,2.8,0.4,3.2c0.1,0.5-0.1,1-0.5,1.1c-0.5,0.1-0.9-0.2-1-0.7
	c-0.1-0.5-0.6-3.6-0.6-3.6l-2.5-1.8c0,0-0.7,2.2-0.8,2.4c-0.1,0.2-0.1,0.3-0.3,0.6c-0.2,0.2-2.5,2.5-2.9,2.9
	c-0.2,0.2-0.5,0.3-0.8,0.3c-0.3-0.1-0.6-0.4-0.6-0.7c0-0.3,0.1-0.6,0.3-0.7l2.5-2.5l1-3.9l1-3.2l0.4-1.2c0.3-0.8,1.1-1.1,1.8-0.9
	c0.7,0.2,0.9,0.4,1.3,0.8c0,0,1.6,1.5,1.7,1.5c0,0,0.1,0.1,0.1,0.1c0.1,0,1.8,0,2.2,0C31.4,27.2,31.7,27.5,31.8,27.9z"/>
<circle fill="#23507a" cx="26.3" cy="23.2" r="1.4"/>
<path fill="#23507a" d="M43.4,31L43.4,31c0-0.3,0-0.6,0-1l0,0l1.8-1.1l-1-2.5l-2,0.5l0,0.1c-0.2-0.3-0.5-0.5-0.7-0.7l0.1,0l0.4-2l-2.5-1L38.2,25
	l0,0c-0.3,0-0.7,0-1,0l0,0l-1.1-1.8l-2.5,1l0.5,2h0c-0.2,0.2-0.5,0.4-0.7,0.7l0,0l-2-0.4l-0.5,1.3L30.4,29l1.8,1.1
	c0,0.3,0,0.6,0,0.9l-1.7,1.1l1,2.5l2-0.5c0.2,0.2,0.4,0.5,0.7,0.7l-0.4,2l1.3,0.5l1.3,0.5l1.1-1.7c0.3,0,0.6,0,0.9,0l1.1,1.7l2.5-1
	l-0.5-2c0.2-0.2,0.5-0.4,0.6-0.7l2,0.4l0.5-1.3l0.5-1.3L43.4,31z M37.8,33.5c-1.6,0-2.9-1.3-2.9-2.9s1.3-2.9,2.9-2.9
	s2.9,1.3,2.9,2.9S39.4,33.5,37.8,33.5z"/>
</svg>
