
<svg xmlns="http://www.w3.org/2000/svg" width="1208" height="236.71" preserveAspectRatio="xMinYMin meet" viewbox="0 0 38 238">
  <style>
    .st0{fill:#E85815;}
  </style>
  <path d="M457.14 107.67v63.45h-23.69v-54.57c0-20.73-7.19-28.34-22-28.34-15.23 0-23.27 10.79-23.27 30.24v52.66h-23.69v-54.57c0-20.73-6.98-28.34-21.57-28.34-16.07 0-23.69 10.79-23.69 30.24v52.66h-23.69V67.91h23.69v15.23h.42c8.46-11.42 19.88-16.71 32.57-16.71 15.65 0 26.44 6.98 31.94 19.46 10.15-12.9 22.63-19.46 36.59-19.46 23.7 0 36.39 15.65 36.39 41.24zm19.19 63.46h23.69V67.91h-23.69v103.22zm11.85-149.96c-8.88 0-15.86 7.19-15.86 15.65 0 8.67 6.98 15.86 15.86 15.86s16.08-7.19 16.08-15.86c-.01-8.46-7.2-15.65-16.08-15.65zm91.41 45.26c-13.54 0-25.8 5.08-34.47 16.71h-.42V67.91h-23.69v103.22h23.69v-52.66c0-19.46 8.25-30.24 25.59-30.24 15.86 0 23.48 7.61 23.48 28.34v54.57h23.69v-63.45c-.01-25.61-13.13-41.26-37.87-41.26zm132.89-43.15h23.48v147.84h-22.63v-14.81h-.42c-7.4 11-18.61 16.5-33.42 16.5-28.55 0-50.13-20.94-50.13-52.88 0-31.09 21.57-53.51 49.92-53.51 13.54 0 25.17 4.44 32.78 14.17h.42V23.28zm.84 96.24c0-20.09-11.21-31.73-30.03-31.73-16.5 0-29.82 12.27-29.82 31.73 0 18.61 12.27 31.73 29.61 31.73 17.98 0 30.24-10.58 30.24-31.73zm148.89.42c0 31.94-21.57 52.88-50.13 52.88-14.8 0-26.01-5.5-33.42-16.5h-.42v14.81h-22.63V23.28h23.48V80.6h.42c7.61-9.73 19.25-14.17 32.78-14.17 28.35 0 49.92 22.42 49.92 53.51zm-24.11-.42c0-19.46-13.33-31.73-29.82-31.73-18.82 0-30.04 11.63-30.04 31.73 0 21.15 12.27 31.73 30.25 31.73 17.35 0 29.61-13.12 29.61-31.73zm141.65.25c-.02 31.28-22.43 53.05-54.15 53.05-32.57 0-54.15-22.84-54.15-53.09 0-30.35 21.43-53.14 53.81-53.3 29.94-.14 54.51 23.41 54.49 53.34zm-24.11-.04c0-19.67-13.11-32.99-30.03-32.99-17.98 0-30.03 14.38-30.03 32.99 0 18.19 12.27 32.57 30.03 32.57 16.7 0 30.03-13.32 30.03-32.57zm116.48-96.45h23.48v147.84h-22.63v-14.81h-.42c-7.4 11-18.61 16.5-33.42 16.5-28.55 0-50.13-20.94-50.13-52.88 0-31.09 21.57-53.51 49.92-53.51 13.54 0 25.17 4.44 32.78 14.17h.42V23.28zm.84 96.24c0-20.09-11.21-31.73-30.03-31.73-16.5 0-29.82 12.27-29.82 31.73 0 18.61 12.27 31.73 29.61 31.73 17.98 0 30.24-10.58 30.24-31.73zm110.88-51.61v49.28c0 19.46-8.04 30.24-24.96 30.24-15.44 0-22.84-7.61-22.84-28.34V67.91h-23.69v60.49c0 25.59 12.9 41.24 37.22 41.24 13.32 0 26.23-5.5 33.84-16.29h.42v8.46c0 18.19-10.36 29.19-30.67 29.19-14.8 0-23.9-4.23-35.11-10.15l-5.71 20.73c11.63 6.98 26.65 10.79 42.09 10.79 38.49 0 53.09-23.48 53.09-55.84V67.91h-23.68zm-998.72-43.2s4.86 3.18 11.04 8.91c1.64 1.47 4.65 4.29 6.94 7.13l1.56 1.96c.12.36-.11.22-.49-.12-1.33-1.23-2.91-2.69-4.69-4.46-1.23-1.04-1.47-.51.09 1.25l4.53 4.73c8.61 9.97 15.82 21.17 21.29 33.24.82 1.95 1.53 3.61 2.14 5.01.01.02 2.1 4.99 3.58 8.88 1.77 3.46 1.77 1.26.83-4.48 0 0-.68-3.27-1.6-6.52-.03-.12-1.2-3.74-1.75-4.95-2.98-7.78-5.57-13.39-5.94-14.2-.38-.73-.63-.31 0 1.53l.1.26c.82 2.01 1.6 4.09 2.37 6.16.47 1.05.21 1.08-.07.53-.53-1.2-1.07-2.4-1.56-3.62-9.73-20.75-26.26-35.09-39.67-43.4-3-1.75-2.03-.19 1.3 2.16zm34.67 43.71c12.72 23.62 17.97 52.21 12.4 81.49-1.91 9.39-5.43 19.94-9.89 28.62-.52.96-.95.86-.21-.9.86-1.76 1.67-3.59 2.37-5.59 2.27-6.16 4.31-12.91 5.67-19.42.37-2.36-.02-2.17-.31-1.06-.39 1.55-.82 3.1-1.27 4.65l-.02.04c-.34 1.14-.69 2.28-1.05 3.41l-.74 2.25c-2.05 7.25-4.72 14.26-8 20.88-.86 1.78-2.05 2.67.58-3.53.96-2.37 3.17-6.91 5.52-13.95s2.74-8.41 2.96-9.91c.31-2.25.21-3.31-.19-1.77-4.69 18.74-11.96 32.78-23.53 45.9-.1.12-.16.19-.15.17-2.8 3.21-3.4 3.64-4.86 4.95-.53.47-.87-.03-.08-.9.96-1.06 1.19-1.32 2.96-3.48.7-.86 1.12-1.45 2.04-2.62 11.73-15.03 19.64-31.7 23.78-51.87 1.19-7.65-.25-6.62-.92-3.06-1.94 12.15-6.79 26.31-12.34 36.64-3.59 7.03-7.27 12.37-9.32 15.11-.61.85-1.14 1.49-1.55 1.96-.24.28-.6.66-.6.66-.34.34-.34.22-.08-.24l2.54-3.82c1.99-3.17 2.82-4.12 5.35-9.43 2.14-4.9 5.42-12.46 6.49-15.32.09-.23.17-.45.17-.45 1.07-2.95 1.8-5.18 1.97-5.79 1.32-4.49 4.78-15.3 4.93-31.8 0 0-.09-5.4-.15-7.32v.11c-.04-1.71-.1-2.82-.16-3.51-.15-2.2-.39-4.41-.75-6.61-.98-5.57-2.65-11.8-4.9-17.96-.25-.42-.27-.14-.16.2 2.86 8.81 4.47 18.08 5.12 27.5.26 5.61.08 9.22.08 9.22-.01.6-.06 2.29-.06 2.41-.93 18.15-6.71 34.52-12.05 45.37l-.02.04c-11.03 21.96-37.19 44.07-65.36 51.29l-2.89.62c-1.41.3-1.17-.39.59-.98l1.93-.54c24.58-7.49 47.91-25.67 59.58-46.71.77-1.39 1.51-2.79 2.22-4.21.21-.36.21-.78-.12-.3 0 0-11 18.58-26.32 29.79-9.96 7.28-20.26 13.24-31.97 17.28-1.66.05 1.5-1.24 2.4-1.63 6.8-2.98 13.31-6.63 19.4-10.88 2.19-1.53 4.4-3.09 6.56-4.72 3.76-2.84 7.38-5.88 10.55-9.28 5.47-5.87 9.9-12.61 14.08-19.43.33-.53.65-1.06.97-1.59 6.37-10.5 10.96-22.16 13.44-34.15.29-1.44.58-3.06.83-4.68.39-2.62.74-5.61.98-7.84l.07-.85c.22-2.62.31-5.26.31-7.86-.44-6.18-1.6-4.42-1.64-3.38.52 16.27-2.89 33.03-10.03 48.04-2.05 4.29-3.03 5.85-3.03 5.85-1.06 1.54-1.67 2.24.59-2.54 0 0 2.3-4.56 4.05-9.61 0 0 1.45-3.95 2.08-6.87 1.02-4.76 2.15-9.46 2.61-12.74.06-1.29-.33-.89-.71.2-.75 3.18-3.45 12.98-3.45 12.98-2.4 7.21-5.58 14.19-9.45 20.75-1.45 2.56-4.75 7.07-6.76 10.12-.16.24-.32.46-.5.68l-1.45 1.78c-8.37 10.36-18.72 19.01-30.69 24.84 0 0-1.01.46-2.13.97-1 .45-1.59.04-.85-.77 1.29-1.42 4.57-3.18 6.72-4.49 2.55-1.55 5.01-3.23 7.4-5.02 4.83-3.62 9.32-7.69 13.41-12.12.49-.53.98-1.07 1.46-1.61l2.83-3.35c5.22-6.45 9.57-13.46 12.69-20.63.87-2.49.91-3.01.2-1.75-1.91 4.43-4.17 8.73-6.75 12.85-.7 1.02-1.42 1.68.27-1.1 9.37-16.91 15.7-36.16 16.15-54.12.17-5.21-.12-10.29-.82-15.2l-.8-4.66c-2.53-12.77-7.65-24.28-13.69-33.87-1.02-1.48-1.36-1.15-1.06-.54.57 1.07 1.13 2.15 1.67 3.25.79 1.46 3.07 5.81 4.77 11.03.55 1.67 2.55 7.57 3.77 14.98.07.37.14.84.21 1.33.15 1.01.29 2.05.4 3.11.02.32-.18.86-.42-.04l-.7-4.39-.38-2.08c-.01-.1-.03-.19-.03-.19-.6-2.71-1.56-6.27-3.04-10.07-2.84-7.29-5.74-11.48-6.31-12.27 0 0-14.96-24.4-32.57-31.61-.88-.36-.33.09-.09.26s6.43 4.35 6.43 4.35c9.89 6.91 17.53 16.28 17.53 16.28s5.07 6.47 9.56 14.29c1.41 2.46 2.54 4.72 3.41 6.67 1.48 4.28.5 3.69-.02 2.45-7.17-15.91-18.63-29.02-31.47-36.99-8.43-5.38-20.79-11.58-34.11-13.95-5.49-1.04-11.05-1.42-16.32-1.24l.09-.02s-9.58.25-17.6 2.4c-3 .97-2.65 1.14-1.69 1.16.57-.12 4.91-.99 10.77-1.71.5-.04 1.34.3-1.26.94l-2.2.41s-2.78.55-5.36 1.1c-2.92.67-5.63 1.31-9.39 2.48l-1.17.42c-13.96 5.9-25.79 12.44-36.1 23.88-17.61 19.53-24.78 47.18-20.11 72.93 2.27 12.51 7.34 24.51 14.99 34.68 5.07 6.75 11.36 12.51 18.11 17.54 3.4 2.53 6.94 4.89 10.56 7.1 1.5.92 3.47 2.6 5.17 3.03 1.46.37 2.86.13 1.06-1.27l-7.43-5.47c-1.07-1.11-.44-1.28 1.81-.4.35.14 11.29 5.68 13.23 6.46 2.25.9 6.92 3.14 7.65 2.24.19-.24.21-.9-.6-1.45-.83-.57-.99-1.38-.19-1.17 1.69.52 3.21.98 3.81 1.15.61.17 3.81 1 3.81 1s-2.09-.51-.02 0 8.34 2.66 12.68 4.41c3.87 1.55 7.6 4.01 9.21 7.23 1.17 2.34 1.8 4.51 1.64 6.83-.26 3.79.26 3.26-.55 6.62 0 0-.22 1.87-.31 2.49-.31 1.38-.73 2.65-1.85 3.76-3.18 3.15-4.27 3.39-4.27 3.39-.78.4-1.71.7-2.96.85-2.44.32-10.1.47-12.52.56-2.44.11-5.49-.44-7.94-.88-2.72-.49-6.18-1.51-8.85-2.36-3.39-1.08-12.32-5.77-14.37-6.64-1.13-.47-9.51-4.23-9.51-4.23-34.1-15.17-58.47-46.5-64.15-83.39C.78 132.7.36 126.4.54 120.16.22 89.12 11.34 59.93 29.4 37.68c.46-.49.43.15-.35 1.13 0 0-3.19 4.54-6.44 10.21-1.98 3.78-3.72 7.59-5.23 11.36-.13.42.13.52.34.05 7.67-15.66 18.94-29.36 32.71-39.68.1-.08.18-.14.26-.21.45-.31.62-.08-.33.86l-.2.15c-.51.35-1.61 1.28-2.32 1.89-5.01 3.99-10.91 10.19-12.11 11.48-4.18 4.82-7.9 9.82-11.11 15.3-.85 1.47-1.63 2.94-2.38 4.42-.33.98-.11.88.51 0 6.85-11.08 15.29-20.61 25.64-28.88l.52-.45C63.17 13.36 80.7 5.68 99.12 2.61c19.93-3.32 37.18-1.34 47.33.83 0 0 7.06 1.79 14.95 4.98.82.34 5.81 2.49 6.57 3.17.21.17.02.25-.21.15-9.94-4.84-18.95-7.01-29.7-8.61-3.14-.47-7.52-.9-11.04-.7-1.58.12-2.15.39-1.51.46.46.02 1.8.02 1.8.02 5.83.2 11.39 1.49 16.85 2.89 2.94.64 8.48 2.49 8.48 2.49.59.2.98.59.06.39-3-.78-5.36-1.24-5.36-1.24-10.15-2.08-19.53-2.86-25.88-2.11-1.29.22-.43.41-.27.41 8.53 0 14.64 1.02 14.64 1.02 10.9 1.82 21.55 5.65 31.43 10.61.41.2 1.09.78-.38.15-7.21-3.56-15.87-6.32-20.54-7.47-3.33-.77-6.68-1.38-10.05-1.81l-4.49-.48c-.8-.06-4.11-.42-4.96-.43-.56-.01-1.12-.04-1.68-.1-3.45-.35-6.93-.17-10.41-.22-.38-.01-.76 0-1.13.02-2.27.13-4.53.13-6.78.38 0 0-5.9.8-8.41 1.26-1.07.17-1.54.38-1.54.38-.88.23.11.29.59.2l.6-.09c2.04-.29 4.07-.53 6.11-.71 5.03-.52 9.98-.72 14.72-.77 0 0 7.7.18 13.23 1.26 1.96.57.29.52-1.03.3-1.58-.25-3.4-.38-4.97-.45-11.4-.27-22.97.94-28.59 1.64-.88.11-1.76.25-2.63.43-3.72.75-14.26 2.99-20.41 5.57l-1.47.63c-.59.2-.69.59-.39.59l2.68-.97c10.76-3.78 22.22-5.99 33.66-6.42 0 0 25.49-1.99 45.95 6.35 1.83.65 5.81 2.19 10.56 4.82.42.32.66.8-1.14-.07l-.88-.42c-11.9-5.66-24.77-8.98-37.68-9.68-.92-.05-1.84-.07-2.76-.09 0 0-5.03-.17-8.16.03-.84.04-1.26.23-.71.2.17 0 .34-.01.52-.01 15.28-.13 28.93 2.98 43.04 9.06 18.34 7.9 34.38 21.67 46.27 37.57l7.88 12.42c.71 1.33 1.38 2.66 2.02 4.01l1.58 2.99c5.74 12.57 8.33 27.98 10.2 40.24.35 2.18.85 1.64.66-.38l-.35-3.05c-.05-1.7-1.41-10.95-3.73-20.14-.05-.15-1.61-6.58-2.94-10.2-2.07-5.65-4.04-10.47-5.04-12.59-1.44-2.75-3.09-6.62-4.67-9.19-.18-.29-.72-1.25-1.11-1.93-3.07-5.47-13.21-18.18-13.21-18.18-.95-.93-2.92-3.97-1.35-2.56 9.71 8.74 17.87 19.23 23.54 31.34.57 1.4 1.2 2.77 1.79 4.15.22.39.25.26.22 0-2.12-6.11-4.72-12.15-7.78-17.96-1.08-1.61-2.93-5.89-.83-3.16 2.2 2.95 8.91 14.59 8.91 14.59zM90.64 7.97c8.32-2.41 17.92-3.56 26.68-3.83h1.57c.55 0 1.11-.16.08-.33-22.02-.95-44.22 5.37-61.85 17.39-.83.54-1.62 1.11-2.43 1.69-2.35 1.75-4.68 3.59-6.87 5.46S32.8 42.12 26.15 53.85c-4.74 8.37-7.4 16.24-8.53 20.07 0 .01-.01.02-.01.02-.15 1.01.52 1.03.91-.34v-.01l.03-.05 3.35-8.08c6.2-13.83 14.77-24.51 20.35-30.58C52.57 24.94 68 14.53 90.64 7.97zm111.68 168.58c.11-.2.18-.27.09-.37 0 0-.04-.11-.39.07-.4.21-.88.97-1.19 1.33-.47.54-8.47 13.56-15.4 20.4-1.53 1.51-2.13 2.07-1.85 2.07s.84-.28 2.04-1.42c3.58-3.43 9.91-9.82 16.7-22.08z" class="st0"/>
</svg>