<svg height="18" viewBox="0 0 120 18" width="120" xmlns="http://www.w3.org/2000/svg"><path d="m50.7356 15.6925.2788 2.0229h-2.2777l-.2789-1.8226h-.051c-.809 1.2648-2.4781 2.074-4.3278 2.074-3.668 0-6.1736-2.9107-6.1736-6.5794 0-3.66882 2.5056-6.57949 6.1736-6.57949 1.9243 0 3.5423.86024 4.3278 2.074h.051v-6.88191h2.2778zm-2.1482-4.3012c0-2.52966-1.618-4.4819-4.1511-4.4819-2.5291 0-4.1746 1.92474-4.1746 4.4819 0 2.5571 1.6455 4.4819 4.1746 4.4819 2.5292-.004 4.1511-1.9523 4.1511-4.4819z"/><path d="m69.602 1.80286h-2.1011v3.33489h-3.2792v2.10149h3.2792v4.00656c0 3.5667 2.8904 6.4577 6.4564 6.4577h.2317v-1.913c-2.5331 0-4.591-2.0543-4.591-4.5918v-3.96339h3.3342v-2.09756h-3.3342v-3.33489z"/><path d="m115.413 1.80286h-2.101v3.33489h-3.279v2.10149h3.279v4.00656c0 3.5667 2.89 6.4577 6.456 6.4577h.232v-1.913c-2.533 0-4.591-2.0543-4.591-4.5918v-3.96339h3.334v-2.09756h-3.334v-3.33489z"/><path d="m77.5665 7.03896v-.00392h-.0511v-1.81868h-2.2739v7.08614c0 .0275-.0039.0589-.0039.0864v5.3028h2.2739v-1.6694h.0039l.0236-4.3326c.2592-2.54532 2.4113-4.52897 5.0229-4.52897v-2.09756c-1.9322 0-3.6877.75025-4.9954 1.97579z"/><path d="m52.1455 12.8446h2.2699c.0511 2.0936 1.5159 3.1817 3.6092 3.1817 2.1717 0 3.4598-.7071 3.4598-1.9955 0-3.1306-8.8087.3536-8.8087-5.37744 0-2.65142 2.6509-3.83769 5.3253-3.83769 3.13 0 5.502 1.71655 5.5295 4.82363h-2.2464c0-1.94438-1.4373-2.87925-3.2831-2.87925-1.4374 0-3.0789.40459-3.0789 1.81868 0 3.28387 8.8087-.20033 8.8087 5.37747 0 2.8518-2.8786 3.9909-5.7534 3.9909-3.1575 0-5.7062-1.6419-5.8319-5.1025z"/><path d="m18.1594 5.06317h-2.2778v12.65613h2.2778z"/><path d="m9.08366 7.89927h-.05106l-5.92224-7.89927h-3.11036l7.74447 10.0479v7.6714h2.47803v-7.6714l7.7445-10.0479h-2.9375z"/><path d="m36.5819 0h-2.2778v17.7193h2.2778z"/><path d="m26.5911 15.8928c-2.3485 0-3.9901-1.6694-4.2414-3.9398h10.3796c0-4.42299-2.2739-7.14904-6.315-7.14904-3.7622 0-6.4406 2.80461-6.4406 6.56764 0 3.7631 2.804 6.5677 6.5663 6.5677 2.0579 0 3.6091-.7071 4.6459-1.7558l-1.512-1.5123c-.6597.7777-1.7397 1.2216-3.0828 1.2216zm-.1532-9.06984c2.1482 0 3.562 1.18627 3.7898 3.20924h-7.7524c.4517-1.86978 1.893-3.20924 3.9626-3.20924z"/><path d="m89.1752 15.8928c-2.3485 0-3.9901-1.6694-4.2453-3.9398h10.3796c0-4.42299-2.2738-7.14904-6.315-7.14904-3.7622 0-6.4406 2.80461-6.4406 6.56764 0 3.7631 2.804 6.5677 6.5663 6.5677 2.0579 0 3.6091-.7071 4.6459-1.7558l-1.512-1.5123c-.6558.7777-1.7358 1.2216-3.0789 1.2216zm-.1532-9.06984c2.1482 0 3.562 1.18627 3.7898 3.20924h-7.7523c.4516-1.86978 1.8929-3.20924 3.9625-3.20924z"/><path d="m103.368 15.8928c-2.348 0-3.9899-1.6694-4.2412-3.9398h10.3792c0-4.42299-2.273-7.14904-6.315-7.14904-3.7618 0-6.4402 2.80461-6.4402 6.56764 0 3.7631 2.804 6.5677 6.5662 6.5677 2.058 0 3.609-.7071 4.646-1.7558l-1.512-1.5123c-.66.7777-1.74 1.2216-3.083 1.2216zm-.149-9.06984c2.148 0 3.562 1.18627 3.79 3.20924h-7.7526c.4516-1.86978 1.8886-3.20924 3.9626-3.20924z"/></svg>