<svg width="191" height="32" viewBox="0 0 191 32" fill="none" xmlns="http://www.w3.org/2000/svg">
<path fill-rule="evenodd" clip-rule="evenodd" d="M16.0979 32V25.8036C22.7129 25.8036 27.7985 19.3032 25.2748 12.3845C24.3571 9.83756 22.2923 7.78478 19.7304 6.87243C12.7713 4.36347 6.23268 9.45741 6.23268 15.9959H0C0 5.54192 10.1711 -2.63119 21.1835 0.790112C26.0013 2.27268 29.8251 6.11214 31.3546 10.902C34.7959 21.8881 26.6131 32 16.0979 32Z" fill="#0069FF"/>
<path fill-rule="evenodd" clip-rule="evenodd" d="M16.0968 25.8415H9.90234V19.6831H16.0968V25.8415Z" fill="#0069FF"/>
<path fill-rule="evenodd" clip-rule="evenodd" d="M9.90271 30.5934H5.12305V25.8416H9.90271V30.5934Z" fill="#0069FF"/>
<path fill-rule="evenodd" clip-rule="evenodd" d="M5.12429 25.8417H1.10938V21.8882H5.08605V25.8417H5.12429Z" fill="#0069FF"/>
<path fill-rule="evenodd" clip-rule="evenodd" d="M57.2423 9.30527C55.4069 8.05079 53.1127 7.40454 50.4361 7.40454H44.624V25.8035H50.4361C53.1127 25.8035 55.4069 25.1193 57.2423 23.7888C58.2365 23.0665 59.0395 22.0781 59.5748 20.8237C60.1101 19.5692 60.416 18.1246 60.416 16.49C60.416 14.8554 60.1484 13.4108 59.5748 12.1944C59.0395 10.9399 58.2747 9.95151 57.2423 9.30527ZM48.0288 10.4838H49.8642C51.8908 10.4838 53.5733 10.864 54.8351 11.6623C56.2499 12.4986 56.9764 14.1332 56.9764 16.4521C56.9764 18.847 56.2499 20.5197 54.8351 21.432C53.6115 22.2303 51.9673 22.6485 49.9025 22.6485H48.0671V10.4838H48.0288Z" fill="#0069FF"/>
<path fill-rule="evenodd" clip-rule="evenodd" d="M64.508 7.13843C63.9345 7.13843 63.4756 7.3285 63.0932 7.70864C62.7109 8.08879 62.4814 8.54496 62.4814 9.11518C62.4814 9.6854 62.6726 10.1416 63.055 10.5597C63.4374 10.9399 63.9345 11.1299 64.508 11.1299C65.0816 11.1299 65.5404 10.9399 65.961 10.5597C66.3434 10.1796 66.5346 9.6854 66.5346 9.11518C66.5346 8.54496 66.3434 8.08879 65.961 7.70864C65.5404 7.36651 65.0433 7.13843 64.508 7.13843Z" fill="#0069FF"/>
<rect x="62.8252" y="12.8025" width="3.28841" height="12.9629" fill="#0069FF"/>
<path fill-rule="evenodd" clip-rule="evenodd" d="M78.0025 13.9049C77.0084 13.0306 75.8995 12.5364 74.7141 12.5364C72.917 12.5364 71.3875 13.1446 70.2404 14.3991C69.055 15.6156 68.4814 17.1741 68.4814 19.0369C68.4814 20.8615 69.055 22.4201 70.2021 23.6746C71.3492 24.8911 72.8787 25.4993 74.6759 25.4993C75.9377 25.4993 77.0084 25.1572 77.9261 24.4729V24.777C77.9261 25.8414 77.6202 26.6778 77.0848 27.248C76.5113 27.8182 75.7083 28.1223 74.7524 28.1223C73.2229 28.1223 72.3052 27.5141 71.1198 25.9935L68.9021 28.1223L68.9785 28.1983C69.4756 28.8826 70.2021 29.5289 71.1581 30.1371C72.114 30.7453 73.3758 31.0874 74.7906 31.0874C76.7407 31.0874 78.3084 30.4792 79.4555 29.3008C80.6027 28.1223 81.2145 26.5257 81.2145 24.587V12.8025H78.0025V13.9049ZM77.1239 21.5459C76.5503 22.1922 75.8238 22.4963 74.8679 22.4963C73.9119 22.4963 73.1854 22.1922 72.6501 21.5459C72.0765 20.8997 71.8089 20.0634 71.8089 18.999C71.8089 17.9345 72.0765 17.0982 72.6501 16.452C73.2237 15.8057 73.9502 15.5016 74.8679 15.5016C75.8238 15.5016 76.5503 15.8057 77.1239 16.452C77.6974 17.0982 77.9651 17.9726 77.9651 18.999C78.0033 20.0634 77.6974 20.8997 77.1239 21.5459Z" fill="#0069FF"/>
<rect x="84.0068" y="12.8025" width="3.28841" height="12.9629" fill="#0069FF"/>
<path fill-rule="evenodd" clip-rule="evenodd" d="M85.6916 7.13843C85.1181 7.13843 84.6592 7.3285 84.2768 7.70864C83.8945 8.08879 83.665 8.54496 83.665 9.11518C83.665 9.6854 83.8562 10.1416 84.2386 10.5597C84.621 10.9399 85.1181 11.1299 85.6916 11.1299C86.2652 11.1299 86.724 10.9399 87.1446 10.5597C87.527 10.1796 87.7182 9.6854 87.7182 9.11518C87.7182 8.54496 87.527 8.08879 87.1446 7.70864C86.724 7.36651 86.2652 7.13843 85.6916 7.13843Z" fill="#0069FF"/>
<path fill-rule="evenodd" clip-rule="evenodd" d="M94.485 9.30518H91.273V12.8025H89.3994V15.7676H91.273V21.1277C91.273 22.8003 91.6172 24.0168 92.2672 24.701C92.9555 25.3853 94.1408 25.7654 95.785 25.7654C96.3204 25.7654 96.8557 25.7654 97.391 25.7274H97.544V22.7623L96.4351 22.8383C95.6703 22.8383 95.135 22.6863 94.8673 22.4202C94.5997 22.1541 94.485 21.5839 94.485 20.7095V15.8057H97.544V12.8405H94.485V9.30518Z" fill="#0069FF"/>
<path fill-rule="evenodd" clip-rule="evenodd" d="M112.915 7.36646H116.203V25.7655H112.915V7.36646Z" fill="#0069FF"/>
<path fill-rule="evenodd" clip-rule="evenodd" d="M149.279 21.1277C148.705 21.7739 148.093 22.3441 147.634 22.6482C147.176 22.9523 146.602 23.0664 145.952 23.0664C144.996 23.0664 144.193 22.7243 143.581 22.002C142.969 21.2797 142.625 20.3674 142.625 19.2649C142.625 18.1625 142.931 17.2502 143.543 16.5279C144.155 15.8056 144.958 15.4635 145.914 15.4635C146.984 15.4635 148.093 16.1097 149.049 17.2502L151.229 15.1974C149.814 13.3727 148.017 12.5364 145.875 12.5364C144.078 12.5364 142.511 13.1826 141.249 14.4751C139.987 15.7676 139.337 17.3642 139.337 19.303C139.337 21.2417 139.987 22.8763 141.249 24.1308C142.511 25.4233 144.078 26.0695 145.875 26.0695C148.246 26.0695 150.158 25.0431 151.458 23.1804L149.279 21.1277Z" fill="#0069FF"/>
<path fill-rule="evenodd" clip-rule="evenodd" d="M162.738 14.6273C162.279 13.9811 161.629 13.4489 160.864 13.0688C160.099 12.6886 159.181 12.4985 158.149 12.4985C156.314 12.4985 154.822 13.1828 153.714 14.4753C152.605 15.8058 152.069 17.4404 152.069 19.3411C152.069 21.3179 152.681 22.9145 153.866 24.169C155.052 25.3854 156.658 26.0317 158.608 26.0317C160.826 26.0317 162.623 25.1574 163.999 23.4087L164.076 23.3327L161.935 21.2799C161.743 21.508 161.437 21.7741 161.208 22.0402C160.902 22.3443 160.596 22.5724 160.252 22.7244C159.755 22.9525 159.22 23.1046 158.608 23.1046C157.69 23.1046 156.964 22.8385 156.39 22.3063C155.855 21.8121 155.549 21.1658 155.472 20.3295H164.152L164.191 19.1511C164.191 18.3148 164.076 17.5164 163.846 16.7562C163.541 15.9579 163.196 15.2736 162.738 14.6273ZM155.588 17.6686C155.741 17.0604 156.046 16.5282 156.429 16.148C156.888 15.7299 157.461 15.5018 158.15 15.5018C158.953 15.5018 159.564 15.7299 159.985 16.1861C160.367 16.6042 160.597 17.0984 160.635 17.7066H155.588V17.6686Z" fill="#0069FF"/>
<path fill-rule="evenodd" clip-rule="evenodd" d="M175.319 13.7909C174.325 12.9545 172.949 12.5364 171.228 12.5364C170.119 12.5364 169.125 12.7645 168.207 13.2206C167.366 13.6388 166.525 14.3611 165.989 15.3114L166.028 15.3494L168.131 17.3642C169.01 15.9957 169.966 15.5015 171.228 15.5015C171.916 15.5015 172.49 15.6916 172.91 16.0337C173.331 16.3758 173.56 16.832 173.56 17.4402V18.0865C172.757 17.8584 171.954 17.7063 171.151 17.7063C169.507 17.7063 168.207 18.0865 167.213 18.8468C166.219 19.6071 165.722 20.7095 165.722 22.078C165.722 23.2945 166.142 24.2829 166.984 25.0051C167.825 25.7274 168.895 26.0695 170.157 26.0695C171.419 26.0695 172.566 25.5753 173.637 24.701V25.7654H176.849V17.4402C176.81 15.8436 176.313 14.6272 175.319 13.7909ZM169.506 20.8234C169.889 20.5573 170.386 20.4433 171.074 20.4433C171.877 20.4433 172.718 20.5954 173.559 20.8995V22.154C172.833 22.8002 171.877 23.1423 170.73 23.1423C170.156 23.1423 169.736 23.0283 169.43 22.7622C169.124 22.5341 168.971 22.23 168.971 21.8118C168.971 21.3937 169.124 21.0515 169.506 20.8234Z" fill="#0069FF"/>
<path fill-rule="evenodd" clip-rule="evenodd" d="M189.428 14.0191C188.51 12.9927 187.248 12.4985 185.604 12.4985C184.304 12.4985 183.234 12.8787 182.469 13.601V12.8027H179.257V25.7656H182.545V18.6189C182.545 17.6305 182.775 16.8702 183.234 16.3C183.692 15.7298 184.342 15.4637 185.184 15.4637C185.91 15.4637 186.484 15.6918 186.904 16.1859C187.325 16.6801 187.516 17.3644 187.516 18.2387V25.7276H190.804V18.2387C190.804 16.452 190.346 15.0455 189.428 14.0191Z" fill="#0069FF"/>
<path fill-rule="evenodd" clip-rule="evenodd" d="M108.788 13.7909C107.794 12.9545 106.417 12.5364 104.697 12.5364C103.588 12.5364 102.594 12.7645 101.676 13.2206C100.835 13.6388 99.9934 14.3611 99.4581 15.3114L99.4963 15.3494L101.599 17.3642C102.479 15.9957 103.435 15.5015 104.697 15.5015C105.385 15.5015 105.958 15.6916 106.379 16.0337C106.8 16.3758 107.029 16.832 107.029 17.4402V18.0865C106.226 17.8584 105.423 17.7063 104.62 17.7063C102.976 17.7063 101.676 18.0865 100.682 18.8468C99.6875 19.6071 99.1904 20.7095 99.1904 22.078C99.1904 23.2945 99.611 24.2829 100.452 25.0051C101.293 25.7274 102.364 26.0695 103.626 26.0695C104.888 26.0695 106.035 25.5753 107.106 24.701V25.7654H110.317V17.4402C110.279 15.8436 109.782 14.6272 108.788 13.7909ZM102.975 20.8234C103.358 20.5573 103.855 20.4433 104.543 20.4433C105.346 20.4433 106.187 20.5954 107.028 20.8995V22.154C106.302 22.8002 105.346 23.1423 104.199 23.1423C103.625 23.1423 103.205 23.0283 102.899 22.7622C102.593 22.5341 102.44 22.23 102.44 21.8118C102.44 21.3937 102.593 21.0515 102.975 20.8234Z" fill="#0069FF"/>
<path fill-rule="evenodd" clip-rule="evenodd" d="M128.057 26.0316C122.819 26.0316 118.536 21.7739 118.536 16.5659C118.536 11.358 122.819 7.10034 128.057 7.10034C133.296 7.10034 137.578 11.358 137.578 16.5659C137.578 21.7739 133.334 26.0316 128.057 26.0316ZM128.056 10.4078C124.653 10.4078 121.9 13.1448 121.9 16.5281C121.9 19.9114 124.653 22.6485 128.056 22.6485C131.459 22.6485 134.212 19.9114 134.212 16.5281C134.212 13.1448 131.459 10.4078 128.056 10.4078Z" fill="#0069FF"/>
</svg>
