<svg xmlns="http://www.w3.org/2000/svg" viewBox="0 0 65 15"><g fill="none" fill-rule="evenodd"><path fill="#212121" fill-rule="nonzero" d="M20.74 1.102c2.117 0 3.343 1.223 3.343 2.869 0 1.102-.696 2.007-1.574 2.294.969.227 1.907 1.117 1.907 2.506 0 1.734-1.305 3.009-3.298 3.034H16.73V1.102h4.01zm-.182 6.25H19.06v2.506h1.498c.923 0 1.482-.483 1.482-1.253 0-.732-.533-1.243-1.454-1.253h-.028zM20.33 3.08h-1.27v2.31h1.3c.832 0 1.377-.438 1.377-1.163 0-.687-.46-1.138-1.38-1.147h-.027zm6.027.286c.755 0 1.36-.604 1.36-1.344 0-.74-.605-1.344-1.36-1.344-.724 0-1.328.604-1.328 1.344 0 .74.604 1.344 1.328 1.344zm1.17 8.439V4.309h-2.31v7.496zm3.47 0V8.524c0-1.497.829-2.041 1.748-2.041.226 0 .467.015.723.075V4.29a2.262 2.262 0 0 0-.603-.076c-.602 0-1.552.242-1.944 1.09V4.29h-2.215v7.515h2.29zM41.518.867v9.69l.001.086v.056l.002.082.002.08.002.05.003.1.004.096.004.09.006.105.007.116.009.119.007.1.013.144h-2.2l-.005-.036-.01-.073-.007-.052-.006-.058-.007-.064-.003-.033-.006-.07-.003-.036-.004-.055-.002-.038-.002-.038-.003-.057-.001-.057v-.057c-.347.513-1.1.89-2.004.89-2.109 0-3.705-1.628-3.705-3.935 0-2.23 1.506-3.904 3.63-3.904.986 0 1.543.286 1.83.548l.021.02c.022.02.041.041.06.06l.017.02.016.02.016.019.015.019.013.018.013.018.012.018.005.009V.867h2.26zM37.6 6.173c-.888 0-1.687.603-1.687 1.854 0 1.236.799 1.87 1.687 1.87.889 0 1.687-.634 1.687-1.87 0-1.25-.798-1.854-1.687-1.854zm8.284-2.1c2.323 0 3.756 1.436 3.756 3.855 0 .318-.03.666-.045.711h-5.219c.045.847.815 1.452 1.705 1.452.83 0 1.297-.394 1.508-.983l1.916.544c-.362 1.3-1.554 2.389-3.455 2.389-2.066 0-3.906-1.482-3.906-4.007 0-2.419 1.795-3.961 3.74-3.961zm.03 1.814c-.965 0-1.447.71-1.493 1.27h3.002c-.03-.574-.422-1.27-1.508-1.27z"/><path fill="#212121" fill-rule="nonzero" d="m53.035 14.681 4.621-10.372h-2.432l-1.661 4.01-1.827-4.01h-2.567l3.156 6.483-1.706 3.889zm7.843-10.608c2.323 0 3.756 1.436 3.756 3.855 0 .318-.03.666-.045.711h-5.22c.046.847.815 1.452 1.705 1.452.83 0 1.297-.394 1.508-.983l1.916.544c-.362 1.3-1.554 2.389-3.454 2.389-2.067 0-3.907-1.482-3.907-4.007 0-2.419 1.795-3.961 3.74-3.961zm.03 1.814c-.965 0-1.448.71-1.493 1.27h3.001c-.03-.574-.422-1.27-1.508-1.27z"/><path fill="#1976D2" d="m8.408 7.006-.002-.001-.088-.035L5.32 5.785a.66.66 0 0 0-.795 1.002l.005.006a.623.623 0 0 0 .049.055l2.15 2.456c.267.3.658.49 1.094.49.808 0 1.463-.651 1.463-1.454 0-.597-.361-1.11-.878-1.334M7.403 2.095c.679-.212 1.41.137 1.633.78.224.641-.145 1.333-.824 1.545-.678.211-1.41-.138-1.633-.78-.223-.642.146-1.334.824-1.545m4.717.767a.69.69 0 0 0-.398-.268v-.002l-.586-.153c-.008-.028-.014-.056-.023-.083C10.506.558 8.517-.419 6.671.173a3.472 3.472 0 0 0-2.08 1.797L3.533 3.652l-2.51-.991-.001.002a.748.748 0 0 0-.514-.023.716.716 0 0 0-.47.91.69.69 0 0 0 .074.152l-.004.005 2.619 3.468.005.01.008.009 1.874 2.628c.818 1.462 2.59 2.343 4.299 1.795 1.845-.592 2.849-2.529 2.241-4.327a3.394 3.394 0 0 0-.923-1.417 3.41 3.41 0 0 0 1.001-1.827l.566-.163v-.007a.665.665 0 0 0 .322-1.014"/></g></svg>