<?xml version="1.0" encoding="utf-8"?>
<!-- Generator: Adobe Illustrator 17.0.0, SVG Export Plug-In . SVG Version: 6.00 Build 0)  -->
<!DOCTYPE svg PUBLIC "-//W3C//DTD SVG 1.1//EN" "http://www.w3.org/Graphics/SVG/1.1/DTD/svg11.dtd">
<svg version="1.1"
	 id="svg1931" sodipodi:docbase="/datas/Projs/Cliparts Stocker/tmp/AIGA" sodipodi:version="0.32" inkscape:version="0.41" sodipodi:docname="AIGA_Telephone.svg" xmlns:cc="http://web.resource.org/cc/" xmlns:sodipodi="http://inkscape.sourceforge.net/DTD/sodipodi-0.dtd" xmlns:dc="http://purl.org/dc/elements/1.1/" xmlns:rdf="http://www.w3.org/1999/02/22-rdf-syntax-ns#" xmlns:svg="http://www.w3.org/2000/svg" xmlns:inkscape="http://www.inkscape.org/namespaces/inkscape"
	 xmlns="http://www.w3.org/2000/svg" xmlns:xlink="http://www.w3.org/1999/xlink" x="0px" y="0px" width="25px" height="25px"
	 viewBox="-172.226 -4.537 25 25" enable-background="new -172.226 -4.537 25 25" xml:space="preserve">
<sodipodi:namedview  pagecolor="#ffffff" bordercolor="#666666" id="base" borderopacity="1.0"></sodipodi:namedview>
<rect x="-172.226" y="-4.537" fill="none" width="25" height="25"/>
<g id="g1941">
	<path id="path1943" fill="#FFFFFF" d="M-164.542,0.537c-0.689,0.503-2.669,3.256,0.857,9.613c3.714,6.696,7.351,6.474,8.087,6.034
		l-2.507-4.392c-0.613,0.35-1.117-0.247-2.043-1.544c-0.613-0.858-1.284-1.97-1.804-3.159c-0.365-0.834-0.657-1.686-0.015-2.052
		L-164.542,0.537z"/>
	<path id="path1945" fill="#FFFFFF" d="M-154.014,15.289c0.284-0.162,0.355-0.51,0.207-0.769l0.001-0.003
		c0,0-1.956-3.422-1.957-3.424c-0.155-0.272-0.497-0.36-0.765-0.207l-1.244,0.71l2.514,4.403c0,0,1.242-0.707,1.243-0.708
		L-154.014,15.289z"/>
	<path id="path1947" fill="#FFFFFF" d="M-160.384,4.132c0.284-0.162,0.355-0.51,0.207-0.769l0.001-0.003c0,0-2.013-3.52-2.014-3.522
		c-0.155-0.272-0.497-0.36-0.765-0.207l-1.244,0.71l2.57,4.502c0,0,1.242-0.707,1.243-0.708L-160.384,4.132z"/>
</g>
</svg>
