<?xml version="1.0" encoding="utf-8"?>
<!-- Generator: Adobe Illustrator 17.0.0, SVG Export Plug-In . SVG Version: 6.00 Build 0)  -->
<!DOCTYPE svg PUBLIC "-//W3C//DTD SVG 1.1//EN" "http://www.w3.org/Graphics/SVG/1.1/DTD/svg11.dtd">
<svg version="1.1" id="Layer_1" xmlns="http://www.w3.org/2000/svg" xmlns:xlink="http://www.w3.org/1999/xlink" x="0px" y="0px"
	 width="17.914px" height="17.914px" viewBox="0.929 1.976 17.914 17.914" enable-background="new 0.929 1.976 17.914 17.914"
	 xml:space="preserve">
<g>
	<path fill="#95a4b6" d="M10.557,10.037v-0.028c-0.005,0.009-0.012,0.019-0.018,0.028H10.557z"/>
	<path fill="#95a4b6" d="M17.462,1.966H2.309c-0.726,0-1.314,0.575-1.314,1.282v15.33c0,0.708,0.588,1.282,1.314,1.282h15.154
		c0.727,0,1.314-0.575,1.314-1.282V3.247C18.777,2.54,18.188,1.966,17.462,1.966z M6.385,16.946H3.699v-8.08h2.686L6.385,16.946
		L6.385,16.946z M5.042,7.762H5.024c-0.901,0-1.484-0.621-1.484-1.396c0-0.792,0.601-1.396,1.519-1.396
		c0.919,0,1.484,0.604,1.502,1.396C6.562,7.141,5.979,7.762,5.042,7.762z M16.07,16.946h-2.686v-4.323
		c0-1.086-0.389-1.828-1.361-1.828c-0.742,0-1.184,0.5-1.379,0.982c-0.071,0.172-0.088,0.413-0.088,0.655v4.513H7.871
		c0,0,0.035-7.323,0-8.081h2.686v1.144c0.357-0.551,0.995-1.335,2.42-1.335c1.767,0,3.092,1.155,3.092,3.637L16.07,16.946
		L16.07,16.946z"/>
</g>
<rect x="0.929" y="1.966" fill="none" width="17.914" height="17.914"/>
</svg>
