<?xml version="1.0" encoding="utf-8"?>
<!-- Generator: Adobe Illustrator 17.1.0, SVG Export Plug-In . SVG Version: 6.00 Build 0)  -->
<!DOCTYPE svg PUBLIC "-//W3C//DTD SVG 1.1//EN" "http://www.w3.org/Graphics/SVG/1.1/DTD/svg11.dtd">
<svg version="1.1"
	 id="svg1931" sodipodi:docname="AIGA_Telephone.svg" inkscape:version="0.41" sodipodi:version="0.32" sodipodi:docbase="/datas/Projs/Cliparts Stocker/tmp/AIGA" xmlns:cc="http://web.resource.org/cc/" xmlns:sodipodi="http://inkscape.sourceforge.net/DTD/sodipodi-0.dtd" xmlns:dc="http://purl.org/dc/elements/1.1/" xmlns:inkscape="http://www.inkscape.org/namespaces/inkscape" xmlns:svg="http://www.w3.org/2000/svg" xmlns:rdf="http://www.w3.org/1999/02/22-rdf-syntax-ns#"
	 xmlns="http://www.w3.org/2000/svg" xmlns:xlink="http://www.w3.org/1999/xlink" x="0px" y="0px" width="17px" height="17px"
	 viewBox="4 4 17 17" enable-background="new 4 4 17 17" xml:space="preserve">
<sodipodi:namedview  pagecolor="#ffffff" bordercolor="#666666" id="base" borderopacity="1.0"></sodipodi:namedview>
<rect x="4" y="4" fill="none" width="17" height="17"/>
<g>
	<path fill="#FFFFFF" d="M7.7,21c-2,0-3.7-1.6-3.7-3.7v-6.1h2.7v2.6v3.5l0,0c0,0.5,0.4,1,1,1c0.5,0,1-0.4,1-1c0-0.5-0.4-1-1-1
		c-0.2,0-0.5,0.1-0.5,0.2v-2.8c0.2,0,0.4-0.1,0.5-0.1c1.9,0.1,3.5,1.7,3.5,3.7S9.6,21,7.7,21z"/>
	<path fill="#FFFFFF" d="M13.6,17.7L13.6,17.7c-0.3-3.5-2.9-6.3-6.2-6.7V8.6c2.1,0.2,4.2,1.2,5.8,2.8c1.7,1.7,2.7,3.9,2.9,6.4H13.6
		L13.6,17.7z"/>
	<path fill="#FFFFFF" d="M20.9,17.7h-2.5c0-0.2,0-0.3,0-0.5c0-5.9-4.8-10.7-10.7-10.7c-0.1,0-0.3,0-0.4,0V4c0.2,0,0.3,0,0.5,0
		c3.5,0,6.8,1.4,9.3,3.8s3.8,5.8,3.8,9.3C20.9,17.3,20.9,17.5,20.9,17.7z"/>
</g>
</svg>
