<?xml version="1.0" encoding="utf-8"?>
<!-- Generator: Adobe Illustrator 19.0.0, SVG Export Plug-In . SVG Version: 6.00 Build 0)  -->
<svg version="1.1" id="Layer_1" xmlns="http://www.w3.org/2000/svg" xmlns:xlink="http://www.w3.org/1999/xlink" x="0px" y="0px"
	 viewBox="-471 273 16 16" style="enable-background:new -471 273 16 16;" xml:space="preserve">
<style type="text/css">
	.st0{fill:#FFFFFF;}
	.st1{fill:none;}
</style>
<path class="st0" d="M-463.4,273.2l-3.5,3.5c-0.1,0.1-0.1,0.2-0.1,0.4c0,0.1,0,0.1,0,0.2c0.1,0.2,0.3,0.3,0.5,0.3h2.5v10.9
	c0,0.2,0.2,0.5,0.5,0.5h1c0.3,0,0.5-0.3,0.5-0.5v-10.9h2.5c0.2,0,0.4-0.1,0.5-0.3c0-0.1,0-0.1,0-0.2s-0.1-0.3-0.1-0.4l-3.5-3.5
	C-462.8,273-463.2,273-463.4,273.2z"/>
<rect x="-471" y="273" class="st1" width="16" height="16"/>
</svg>
