<?xml version="1.0" encoding="utf-8"?>
<!-- Generator: Adobe Illustrator 17.0.0, SVG Export Plug-In . SVG Version: 6.00 Build 0)  -->
<!DOCTYPE svg PUBLIC "-//W3C//DTD SVG 1.1//EN" "http://www.w3.org/Graphics/SVG/1.1/DTD/svg11.dtd">
<svg version="1.1" id="Layer_1" xmlns="http://www.w3.org/2000/svg" xmlns:xlink="http://www.w3.org/1999/xlink" x="0px" y="0px"
	 width="17.914px" height="17.89px" viewBox="0.683 0 17.914 17.89" enable-background="new 0.683 0 17.914 17.89"
	 xml:space="preserve">
<g>
	<path fill="#FFFFFF" d="M18.138,7.429H15.45V4.741c0-0.205-0.166-0.372-0.371-0.372h-0.765c-0.206,0-0.373,0.167-0.373,0.372v2.688
		h-2.688c-0.205,0-0.372,0.167-0.372,0.373v0.765c0,0.206,0.167,0.372,0.372,0.372h2.688v2.688c0,0.206,0.166,0.372,0.373,0.372
		h0.765c0.205,0,0.371-0.166,0.371-0.372V8.938h2.688c0.205,0,0.372-0.166,0.372-0.372V7.801
		C18.509,7.595,18.342,7.429,18.138,7.429z"/>
	<path fill="#FFFFFF" d="M9.105,9.786c-0.566-0.4-1.08-0.988-1.089-1.168c0-0.329,0.029-0.485,0.766-1.06
		c0.953-0.745,1.477-1.726,1.477-2.762c0-0.939-0.287-1.773-0.776-2.36h0.379c0.079,0,0.156-0.024,0.218-0.071l1.057-0.766
		c0.131-0.094,0.186-0.262,0.136-0.416c-0.05-0.153-0.192-0.257-0.354-0.257H6.192c-0.518,0-1.043,0.091-1.559,0.269
		C2.91,1.79,1.705,3.258,1.705,4.765c0,2.136,1.654,3.755,3.867,3.805c-0.043,0.17-0.065,0.336-0.065,0.5
		c0,0.33,0.083,0.641,0.255,0.942c-0.02,0-0.039,0-0.061,0c-2.108,0-4.011,1.034-4.733,2.574c-0.189,0.4-0.284,0.804-0.284,1.205
		c0,0.389,0.099,0.762,0.296,1.114c0.454,0.812,1.429,1.443,2.747,1.775c0.68,0.172,1.411,0.26,2.17,0.26
		c0.682,0,1.332-0.088,1.933-0.262c1.874-0.544,3.086-1.924,3.086-3.517C10.915,11.633,10.423,10.718,9.105,9.786z M3.133,13.283
		c0-1.112,1.412-2.086,3.022-2.086h0.043c0.35,0.004,0.692,0.055,1.014,0.155c0.111,0.076,0.217,0.149,0.319,0.219
		c0.745,0.509,1.239,0.844,1.376,1.382c0.032,0.135,0.048,0.271,0.048,0.402c0,1.384-1.032,2.086-3.069,2.086
		C4.342,15.44,3.133,14.493,3.133,13.283z M4.598,2.779C4.85,2.492,5.179,2.34,5.549,2.34h0.042C6.636,2.372,7.636,3.536,7.82,4.937
		c0.104,0.784-0.072,1.522-0.466,1.972c-0.253,0.288-0.577,0.44-0.963,0.44l0,0H6.374C5.35,7.317,4.329,6.108,4.145,4.709
		C4.044,3.926,4.208,3.223,4.598,2.779z"/>
</g>
<rect x="0.683" y="-0.024" fill="none" width="17.914" height="17.914"/>
</svg>
