<?xml version="1.0" encoding="utf-8"?>
<!-- Generator: Adobe Illustrator 17.0.0, SVG Export Plug-In . SVG Version: 6.00 Build 0)  -->
<!DOCTYPE svg PUBLIC "-//W3C//DTD SVG 1.1//EN" "http://www.w3.org/Graphics/SVG/1.1/DTD/svg11.dtd">
<svg version="1.1" id="Layer_1" xmlns="http://www.w3.org/2000/svg" xmlns:xlink="http://www.w3.org/1999/xlink" x="0px" y="0px"
	 width="17.914px" height="17.914px" viewBox="0 0 17.914 17.914" enable-background="new 0 0 17.914 17.914" xml:space="preserve">
<path fill="#95a4b6" d="M17.841,3.447c-0.653,0.29-1.356,0.486-2.093,0.574c0.753-0.451,1.33-1.165,1.603-2.017
	c-0.704,0.418-1.484,0.721-2.314,0.885c-0.665-0.708-1.613-1.152-2.66-1.152c-2.013,0-3.645,1.632-3.645,3.645
	c0,0.285,0.032,0.563,0.094,0.831C5.796,6.062,3.11,4.611,1.312,2.406C0.998,2.943,0.818,3.569,0.818,4.238
	c0,1.264,0.643,2.38,1.621,3.034C1.842,7.253,1.28,7.088,0.788,6.815c0,0.015,0,0.03,0,0.046c0,1.766,1.256,3.239,2.924,3.574
	c-0.306,0.083-0.628,0.127-0.96,0.127c-0.235,0-0.464-0.022-0.686-0.065C2.53,11.946,3.875,13,5.47,13.029
	c-1.247,0.978-2.819,1.56-4.527,1.56c-0.294,0-0.585-0.018-0.87-0.051c1.614,1.035,3.529,1.638,5.588,1.638
	c6.705,0,10.371-5.554,10.371-10.371c0-0.158-0.003-0.316-0.01-0.472C16.735,4.82,17.354,4.178,17.841,3.447z"/>
<rect fill="none" width="17.914" height="17.914"/>
</svg>
