<svg xmlns="http://www.w3.org/2000/svg" xmlns:xlink="http://www.w3.org/1999/xlink" version="1.1" x="0px" y="0px" viewBox="0 0 100 100" style="enable-background:new 0 0 100 100;" xml:space="preserve"><style type="text/css">
	.st0{fill:none;}
</style><path fill="#95a4b6" d="M50,5.6c-8.9,0-17.1,2.6-24.1,7.1c-5.3,3.4-9.9,8-13.4,13.4C8.1,33,5.4,41.2,5.4,50.1c0,24.6,19.9,44.5,44.6,44.5  c8.9,0,17.2-2.6,24.1-7.1c5.4-3.5,9.9-8,13.4-13.4c4.5-7,7.1-15.2,7.1-24.1C94.6,25.5,74.6,5.6,50,5.6z M65,78.5  c-4.5,2.4-9.6,3.7-15,3.7c-17.7,0-32.1-14.4-32.1-32c0-5.4,1.3-10.5,3.7-15c3-5.7,7.7-10.4,13.4-13.4c4.5-2.4,9.6-3.7,15-3.7  c17.7,0,32.1,14.3,32.1,32.1c0,5.4-1.3,10.5-3.7,15C75.3,70.8,70.7,75.5,65,78.5z"></path><polygon fill="#95a4b6" points="68.7,36.5 50.8,54.5 45.1,48.8 63,30.8 "></polygon><rect fill="#95a4b6" x="45.1" y="48.8" width="8.1" height="16.8"></rect></svg>