<?xml version="1.0" encoding="utf-8"?>
<!-- Generator: Adobe Illustrator 16.2.1, SVG Export Plug-In . SVG Version: 6.00 Build 0)  -->
<!DOCTYPE svg PUBLIC "-//W3C//DTD SVG 1.1//EN" "http://www.w3.org/Graphics/SVG/1.1/DTD/svg11.dtd">
<svg version="1.1" id="Layer_1" xmlns="http://www.w3.org/2000/svg" xmlns:xlink="http://www.w3.org/1999/xlink" x="0px" y="0px"
	 width="571.854px" height="438.019px" viewBox="0 0 571.854 438.019" enable-background="new 0 0 571.854 438.019"
	 xml:space="preserve">
<path fill="#FFFFFF" d="M272.634,222.534c-28.453,21.339-62.955,32.543-97.541,39.16c-30.103,5.761-61.315,8.334-91.968,7.521
	c-26.577-0.707-60.468-5.877-68.928-35.618c-7.574-26.627,12.503-55.014,28.075-74.603c18.561-23.347,40.672-44.488,63.533-63.537
	c29.811-24.84,62.718-46.456,98.003-62.679c39.648-18.231,138.164-52.28,146.643,19.199c4.046,34.115-10.907,70.09-25.593,99.998
	c-15.977,32.534-36.234,62.753-56.226,92.903c-21.659,32.663-43.13,65.366-67.768,95.907
	c-12.655,15.688-25.994,30.941-40.288,45.162c-12.744,12.677-25.551,25.603-42.343,32.762c-4.936,2.105-10.289,3.167-15.567,3.97
	c3.235,0.493,6.472,0.984,9.708,1.477c-5.707-5.675-4.599-14.875-3.056-21.979c2.326-10.702,8.135-21.156,13.757-30.438
	c11.322-18.692,24.835-36.121,38.113-53.454c45.092-58.859,101.122-108.419,155.658-158.22c5.877-5.367-8.868-9.516-13.063-5.871
	c-60.073,52.188-120.973,104.194-168.51,168.57c-13.483,18.26-27.395,35.939-37.763,56.268c-5.171,10.14-9.578,21.442-10.171,32.919
	c-0.495,9.566,4.006,26.65,16.322,26.054c17.151-0.83,34.361-10.725,47.499-21.059c14.056-11.056,26.565-24.464,38.616-37.615
	c27.198-29.688,51.149-62.328,73.508-95.757c19.648-29.375,39.274-58.984,57.317-89.374c18.634-31.383,35.21-64.5,42.958-100.392
	c5.92-27.417,6.02-58.983-17.281-78.297C326.516-0.874,297.321-1.582,273.136,1.331c-35.269,4.249-69.564,18.501-100.725,34.975
	c-34.172,18.066-65.558,41.176-94.199,67.05c-20.661,18.665-40.663,39.08-56.755,61.869c-13.94,19.741-29.072,48.639-17.14,72.853
	c13.365,27.124,46.443,34.604,74.01,36.654c29.429,2.188,59.858-0.412,88.959-4.784c39.639-5.954,80.316-17.611,112.665-42.128
	C282.171,226.137,274.624,221.042,272.634,222.534L272.634,222.534z"/>
<path fill="#FFFFFF" d="M350.363,203.522c5.162-5.886,7.676-12.619,9.568-20.125c-1.227-0.699-2.455-1.398-3.681-2.097
	c-0.969,5.885-2.143,11.571-0.022,17.315c0.344,0.934,2.897,2.664,3.818,1.795c2.879-2.715,5.861-5.075,7.189-8.913
	c-1.237-0.699-2.471-1.397-3.707-2.097c-0.334,6.581,1.62,13.712,9.455,14.303c7.605,0.575,12.626-5.191,16.763-10.871
	c10.594-14.542,16.948-33.586,21.39-50.889c0.485-1.895-4.93-3.842-5.592-2.041c-3.175,8.644-6.055,17.394-8.484,26.28
	c-2.622,9.595-6.178,21.054-3.83,31.05c1.817,7.736,10.569,8.181,16.475,5.075c9.681-5.094,14.398-17.103,24.199-21.783
	c-2.13-0.553-4.263-1.105-6.393-1.658c1.698,6.396,2.414,13.073,9.391,15.496c11.549,4.01,24.632,2.198,36.338,0.211
	c8.685-1.472,16.847-2.083,25.617-1.158c8.946,0.943,17.824,2.884,26.682,4.416c14.742,2.548,29.491,4.331,44.253,1.162
	c4.735-1.017,0.231-4.833-2.745-4.508c-27.112,2.963-53.182-6.442-80.187-6.465c-13.608-0.011-26.415,5.597-40.18,4.442
	c-2.587-0.218-7.351,0.035-9.102-2.247c-2.154-2.803-2.374-7.776-3.045-11.087c-0.393-1.929-4.301-2.598-5.769-1.94
	c-7.007,3.139-11.988,10.292-17.236,15.64c-1.196,1.219-8.881,8.914-10.408,7.147c-2.105-2.435-1.936-6.981-1.876-9.928
	c0.329-16.31,6.444-32.897,11.892-48.105c-1.864-0.68-3.727-1.36-5.592-2.041c-3.172,12.577-7.643,24.944-13.08,36.71
	c-2.928,6.335-6.294,12.621-10.706,18.054c-1.885,2.318-4.172,4.32-6.834,5.682c-2.645,1.352-6.911,1.347-7.911-3.026
	c-0.449-1.968-0.036-4.093,0.269-6.042c0.146-0.952-3.277-3.026-3.708-2.096c-1.663,3.603-4.605,6.166-7.394,8.908
	c1.272,0.6,2.546,1.198,3.82,1.797c-2.216-5.496-0.83-11.074-0.025-16.708c0.156-1.085-3.515-2.857-3.678-2.097
	c-1.587,7.315-3.878,14.24-8.258,20.379C347.643,202.024,349.949,203.994,350.363,203.522L350.363,203.522z"/>
</svg>
