<?xml version="1.0" encoding="utf-8"?>
<!-- Generator: Adobe Illustrator 17.1.0, SVG Export Plug-In . SVG Version: 6.00 Build 0)  -->
<!DOCTYPE svg PUBLIC "-//W3C//DTD SVG 1.1//EN" "http://www.w3.org/Graphics/SVG/1.1/DTD/svg11.dtd">
<svg version="1.1" id="Layer_1" xmlns="http://www.w3.org/2000/svg" xmlns:xlink="http://www.w3.org/1999/xlink" x="0px" y="0px"
	 width="25px" height="25px" viewBox="0 0 25 25" enable-background="new 0 0 25 25" xml:space="preserve">
<path fill="#FFFFFF" d="M24.3,24.4c-0.9,0.9-2.4,0.9-3.3,0l-4.1-4.1C15.2,21.4,13.2,22,11,22C4.9,22,0,17.1,0,11S4.9,0,11,0
	s11,4.9,11,11c0,2.2-0.7,4.2-1.7,5.9l4.1,4.1C25.2,22,25.2,23.5,24.3,24.4z M11,3.2c-4.3,0-7.8,3.5-7.8,7.8s3.5,7.8,7.8,7.8
	c4.3,0,7.8-3.5,7.8-7.8S15.3,3.2,11,3.2z"/>
</svg>
