<?xml version="1.0" encoding="utf-8"?>
<!-- Generator: Adobe Illustrator 19.0.0, SVG Export Plug-In . SVG Version: 6.00 Build 0)  -->
<svg version="1.1" id="Layer_1" xmlns="http://www.w3.org/2000/svg" xmlns:xlink="http://www.w3.org/1999/xlink" x="0px" y="0px"
	 viewBox="-471 273 16 16" style="enable-background:new -471 273 16 16;" xml:space="preserve">
<style type="text/css">
	.st0{fill:#FFFFFF;}
	.st1{fill:none;}
</style>
<path class="st0" d="M-455.2,280.6l-3.5-3.5c-0.1-0.1-0.2-0.1-0.4-0.1c-0.1,0-0.1,0-0.2,0c-0.2,0.1-0.3,0.3-0.3,0.5v2.5h-10.9
	c-0.2,0-0.5,0.2-0.5,0.5v1c0,0.3,0.3,0.5,0.5,0.5h10.9v2.5c0,0.2,0.1,0.4,0.3,0.5c0.1,0,0.1,0,0.2,0s0.3-0.1,0.4-0.1l3.5-3.5
	C-455,281.2-455,280.8-455.2,280.6z"/>
<rect x="-471" y="273" class="st1" width="16" height="16"/>
</svg>
