<?xml version="1.0" encoding="utf-8"?>
<!-- Generator: Adobe Illustrator 16.2.1, SVG Export Plug-In . SVG Version: 6.00 Build 0)  -->
<!DOCTYPE svg PUBLIC "-//W3C//DTD SVG 1.1//EN" "http://www.w3.org/Graphics/SVG/1.1/DTD/svg11.dtd">
<svg version="1.1" id="Layer_1" xmlns="http://www.w3.org/2000/svg" xmlns:xlink="http://www.w3.org/1999/xlink" x="0px" y="0px"
	 width="17.914px" height="17.914px" viewBox="0 0 17.914 17.914" enable-background="new 0 0 17.914 17.914" xml:space="preserve">
<rect x="0.016" y="0.016" fill="none" width="17.914" height="17.913"/>
<path fill="#95a4b6" d="M8.972,0.074c-4.912,0-8.897,3.986-8.897,8.898c0,4.917,3.985,8.899,8.897,8.899
	c4.913,0,8.899-3.981,8.899-8.899C17.871,4.06,13.885,0.074,8.972,0.074z M14.622,4.175c1.001,1.177,1.636,2.67,1.747,4.306
	c-1.604-0.083-3.522-0.083-5.061,0.06c-0.195-0.491-0.395-0.973-0.613-1.437C12.471,6.335,13.839,5.325,14.622,4.175z M8.972,1.557
	c1.798,0,3.449,0.64,4.733,1.706c-0.808,1.02-2.072,1.905-3.648,2.577c-0.861-1.595-1.854-2.966-2.91-4.046
	C7.735,1.646,8.342,1.557,8.972,1.557z M5.617,2.368c1.07,1.066,2.076,2.424,2.957,4.014C6.9,6.891,4.982,7.184,2.934,7.184
	c-0.39,0-0.77-0.014-1.145-0.037C2.322,5.056,3.735,3.323,5.617,2.368z M1.57,8.62C1.993,8.638,2.419,8.647,2.85,8.643
	c2.336-0.028,4.51-0.394,6.378-0.992C9.403,8.018,9.57,8.393,9.729,8.778c-0.256,0.06-0.482,0.125-0.664,0.199
	c-2.554,1.071-4.564,2.799-5.653,4.891C2.262,12.56,1.557,10.85,1.557,8.972C1.557,8.852,1.562,8.736,1.57,8.62z M8.972,16.389
	c-1.715,0-3.29-0.585-4.546-1.562c0.987-1.956,2.749-3.572,4.969-4.579c0.207-0.098,0.485-0.176,0.806-0.246
	c0.264,0.733,0.5,1.493,0.709,2.279c0.319,1.23,0.548,2.443,0.687,3.621C10.779,16.211,9.899,16.389,8.972,16.389z M12.981,15.206
	c-0.14-1.19-0.366-2.414-0.69-3.656c-0.158-0.603-0.34-1.187-0.534-1.757c1.456-0.12,3.199-0.103,4.584,0
	C16.09,12.068,14.812,14.023,12.981,15.206z"/>
</svg>
