<svg xmlns="http://www.w3.org/2000/svg" viewBox="0 0 100 100"><g fill="#23507a"><path d="M100 96.1c0 1.5-1.2 2.7-2.7 2.7H30.4c-1.5 0-2.7-1.2-2.7-2.7V91h55.8c4.8 0 8.8-3.9 8.8-8.8V28.8h5.1c1.5 0 2.7 1.2 2.7 2.7-.1 0-.1 64.6-.1 64.6z"/><path d="M13.8 82.3v-5.1h55.8c4.8 0 8.8-3.9 8.8-8.8V15h5.1c1.5 0 2.7 1.2 2.7 2.7v64.6c0 1.5-1.2 2.7-2.7 2.7h-67c-1.5 0-2.7-1.2-2.7-2.7z"/><path d="M69.6 1.2H2.7C1.2 1.2 0 2.4 0 3.9v64.6c0 1.5 1.2 2.7 2.7 2.7h66.9c1.5 0 2.7-1.2 2.7-2.7V3.9c.1-1.5-1.2-2.7-2.7-2.7zm-3.7 36.9c1.1 1 1.2 2.8.2 3.9s-2.8 1.2-3.9.2l-7.4-6.8-7.4 6.8c-1.1 1-2.7 1-3.8 0l-7.3-6.8-7.4 6.8c-1.1 1-2.7 1-3.8 0l-7.4-6.8-7.4 6.8c-1.1 1.1-2.8 1.1-3.9 0s-1.1-2.8 0-3.9c.1-.1.1-.1.2-.1l9.3-8.5c1.1-1 2.7-1 3.8 0l7.4 6.8 7.4-6.8c1.1-1 2.7-1 3.8 0l7.4 6.8 7.4-6.8c1.1-1 2.7-1 3.8 0l9 8.4zm0 13.6c1.1 1 1.2 2.8.2 3.9s-2.8 1.2-3.9.2L54.7 49l-7.4 6.8c-1.1 1-2.7 1-3.8 0L36.2 49l-7.4 6.8c-1.1 1-2.7 1-3.8 0L17.7 49l-7.4 6.8c-1.2 1-2.9.9-3.9-.3-.9-1.1-.9-2.7.1-3.8l9.3-8.5c1.1-1 2.7-1 3.8 0L27 50l7.4-6.8c1.1-1 2.7-1 3.8 0l7.4 6.8 7.4-6.8c1.1-1 2.7-1 3.8 0l9.1 8.5zm0-27.2c1.1 1 1.2 2.8.2 3.9s-2.8 1.2-3.9.2l-7.4-6.8-7.4 6.8c-1.1 1-2.7 1-3.8 0l-7.3-6.8-7.4 6.8c-1.1 1-2.7 1-3.8 0l-7.4-6.8-7.4 6.8c-1.2 1-2.9.9-3.9-.3-.9-1.1-.9-2.7.1-3.8l9.3-8.5c1.1-1 2.7-1 3.8 0l7.4 6.8 7.4-6.8c1.1-1 2.7-1 3.8 0l7.4 6.8L53 16c1.1-1 2.7-1 3.8 0l9.1 8.5z"/></g></svg>