<svg xmlns="http://www.w3.org/2000/svg" viewBox="0 0 377.184 377.184"><g fill="#23507a"><path d="M222.366 243.42c-6.845-6.167-15.188-11.079-23.562-15.056-20.083-9.547-40.729-17.858-60.848-27.291-55.917-26.217-91.683-85.812-51.002-156.833L27.41 57.812C8.43 62.132-3.443 81.03.894 100.009L57.8 349.761c4.337 18.979 23.218 30.854 42.229 26.531l24.8-5.655v-.411c-16.391-7.271-31.792-14.115-48.332-21.454 9.746-23.149 18.964-45.031 28.727-68.25 6.2 3.693 10.569 6.445 15.055 8.971 26.351 14.742 54.251 21.587 84.458 16.521 13.983-2.322 26.056-7.438 30.046-22.871 4.056-15.744-.807-29.268-12.417-39.723zM376.296 277.175L319.375 27.422C315.038 8.442 296.157-3.431 277.161.89L241.64 8.987c.032.016.032.033.032.033 17.281 5.624 32.256 10.042 46.617 15.781l12.681 5.046s-17.645 45.792-25.132 67.51c-28.229-22.558-54.941-28.659-85.729-24.109-13.206 1.946-26.102 10.967-29.977 24.702-4.039 14.395.974 25.658 12.979 33.425 8.821 5.688 18.302 10.555 27.932 14.725 18.832 8.18 38.289 14.89 56.89 23.482 45.843 21.172 69.456 56.688 65.366 107.905-1.188 14.811-5.54 32.389-9.433 49.687.101.114.165.215.229.312l35.649-8.111c19.002-4.323 30.874-23.221 26.552-42.2z"/></g></svg>