<svg xmlns="http://www.w3.org/2000/svg" viewBox="0 0 100 100"><path fill="#23507a" d="M94.982 29.446c.012.174.018.355.018.545v45.941a7.272 7.272 0 0 1-7.272 7.272H18.061c-.184 0-.362-.006-.533-.018-2.25-.157-2.067-3.557.189-3.557H87.73a3.695 3.695 0 0 0 3.695-3.696V29.632c0-2.257 3.403-2.438 3.557-.186M46.2 57.173c7.6 0 14.623-2.467 18.785-6.603l2.834 2.854c-4.899 4.864-12.982 7.769-21.619 7.769-8.633 0-16.716-2.905-21.619-7.769l2.834-2.854c4.166 4.134 11.189 6.603 18.785 6.603M19.16 22.791a1.564 1.564 0 1 1 1.564 1.564c-.864 0-1.564-.7-1.564-1.564m-5.288 0a1.564 1.564 0 1 1 1.564 1.564c-.864 0-1.564-.7-1.564-1.564m-5.288 0a1.564 1.564 0 1 1 1.564 1.564c-.864 0-1.564-.7-1.564-1.564m29.873 14.886a4.674 4.674 0 1 1-4.674-4.674 4.674 4.674 0 0 1 4.674 4.674m24.971 0a4.674 4.674 0 1 1-4.674-4.674 4.674 4.674 0 0 1 4.674 4.674m23.948 33.556V21.458A4.465 4.465 0 0 0 82.917 17H9.458A4.465 4.465 0 0 0 5 21.458v49.775a4.464 4.464 0 0 0 4.458 4.458h73.459c2.458 0 4.459-2 4.459-4.458" fill-rule="evenodd"/></svg>