<?xml version="1.0" encoding="utf-8"?>
<!-- Generator: Adobe Illustrator 18.1.1, SVG Export Plug-In . SVG Version: 6.00 Build 0)  -->
<!DOCTYPE svg PUBLIC "-//W3C//DTD SVG 1.1//EN" "http://www.w3.org/Graphics/SVG/1.1/DTD/svg11.dtd">
<svg version="1.1" id="Livello_1" xmlns="http://www.w3.org/2000/svg" xmlns:xlink="http://www.w3.org/1999/xlink" x="0px" y="0px"
	 width="24px" height="24px" viewBox="-293 385 24 24" enable-background="new -293 385 24 24" xml:space="preserve">
<g id="Livello_1_1_">
</g>
<rect x="-293.1" y="385" fill="none" width="24" height="24"/>
<g>
	<g>
		<polygon fill="#95A4B6" points="-290.6,406.8 -271.6,406.8 -281.1,400.7 		"/>
		<polygon fill="#95A4B6" points="-291.1,394.5 -291.1,406.2 -281.9,400.3 		"/>
		<polygon fill="#95A4B6" points="-271,406.2 -271,394.5 -280.2,400.3 		"/>
		<polygon fill="#95A4B6" points="-287.4,392.1 -276.8,390.1 -275.6,396.4 -271,393.5 -281.1,387.3 -291.1,393.5 -286.6,396.3 		"/>
		
			<rect x="-282.2" y="388.8" transform="matrix(0.1862 0.9825 -0.9825 0.1862 157.0605 596.7626)" fill="#95A4B6" width="0.9" height="8.7"/>
		
			<rect x="-281.8" y="390.8" transform="matrix(-0.1856 -0.9826 0.9826 -0.1856 -721.8406 192.0383)" fill="#95A4B6" width="0.9" height="8.7"/>
		<polygon fill="#95A4B6" points="-276.6,396.7 -276.8,395.9 -285.3,397.5 -284.2,398.2 		"/>
	</g>
</g>
</svg>
