<?xml version="1.0" encoding="utf-8"?>
<!-- Generator: Adobe Illustrator 19.0.0, SVG Export Plug-In . SVG Version: 6.00 Build 0)  -->
<svg version="1.1" id="Layer_1" xmlns="http://www.w3.org/2000/svg" xmlns:xlink="http://www.w3.org/1999/xlink" x="0px" y="0px"
	 viewBox="-471 273 16 16" style="enable-background:new -471 273 16 16;" xml:space="preserve">
<style type="text/css">
	.st0{fill:#FFFFFF;}
	.st1{fill:none;}
</style>
<path class="st0" d="M-470.8,281.4l3.5,3.5c0.1,0.1,0.2,0.1,0.4,0.1c0.1,0,0.1,0,0.2,0c0.2-0.1,0.3-0.3,0.3-0.5V282h10.9
	c0.2,0,0.5-0.2,0.5-0.5v-1c0-0.3-0.3-0.5-0.5-0.5h-10.9v-2.5c0-0.2-0.1-0.4-0.3-0.5c-0.1,0-0.1,0-0.2,0s-0.3,0.1-0.4,0.1l-3.5,3.5
	C-471,280.8-471,281.2-470.8,281.4z"/>
<rect x="-471" y="273" class="st1" width="16" height="16"/>
</svg>
