<?xml version="1.0" encoding="utf-8"?>
<!-- Generator: Adobe Illustrator 18.1.1, SVG Export Plug-In . SVG Version: 6.00 Build 0)  -->
<!DOCTYPE svg PUBLIC "-//W3C//DTD SVG 1.1//EN" "http://www.w3.org/Graphics/SVG/1.1/DTD/svg11.dtd">
<svg version="1.1" id="Layer_1" xmlns="http://www.w3.org/2000/svg" xmlns:xlink="http://www.w3.org/1999/xlink" x="0px" y="0px"
	 width="17.9px" height="17.9px" viewBox="-390 392.1 17.9 17.9" enable-background="new -390 392.1 17.9 17.9"
	 xml:space="preserve">
<rect x="-390" y="392.1" fill="none" width="17.9" height="17.9"/>
<g>
	<path fill="#95A4B6" d="M-389.9,397.8v7.7c0,0.3,0.3,0.5,0.6,0.5h0.3v-8.8h-0.3C-389.6,397.2-389.9,397.5-389.9,397.8z"/>
	<path fill="#95A4B6" d="M-388.8,396.1v10.8c0,0.4,0.3,0.7,0.8,0.7h0.3v-12.3h-0.3C-388.5,395.4-388.8,395.7-388.8,396.1z"/>
	<path fill="#95A4B6" d="M-373.3,392.7h-13.2c-0.6,0-1.1,0.5-1.1,1.1v14.7c0,0.6,0.5,1.1,1.1,1.1h13.2c0.6,0,1.1-0.5,1.1-1.1v-14.7
		C-372.2,393.1-372.7,392.7-373.3,392.7z M-374.2,405.9c0,0.6-0.5,1.1-1.1,1.1h-9.1c-0.6,0-1.1-0.5-1.1-1.1v-9.8
		c0-0.6,0.5-1.1,1.1-1.1h9.1c0.6,0,1.1,0.5,1.1,1.1V405.9z"/>
	<path fill="#95A4B6" d="M-381.8,405.2v-7.4c0-0.3-0.2-0.6-0.5-0.6h-2.9v1.1h1.8c0.3,0,0.5,0.3,0.5,0.6v4.8c0,0.3-0.2,0.6-0.5,0.6
		h-1.8v1.1h3.4C-381.8,405.1-381.8,405.2-381.8,405.2z"/>
	<path fill="#95A4B6" d="M-378.3,395.4h-6.5c-0.2,0.2-0.4,0.4-0.4,0.7v1h5.5c0.4,0,0.8,0.3,0.8,0.7v7.1c0,0.4-0.4,0.9-0.8,0.9h-5.5
		v0.1c0,0.2,0.1,0.4,0.3,0.6c0.2,0.1,0.4,0.2,0.7,0.2h6.8v-10.5C-377.4,395.7-377.9,395.4-378.3,395.4z"/>
</g>
</svg>
