<svg xmlns="http://www.w3.org/2000/svg" xmlns:xlink="http://www.w3.org/1999/xlink" version="1.1" x="0px" y="0px" viewBox="0 0 512 512" enable-background="new 0 0 512 512" xml:space="preserve"><g><path fill="#95a4b6" d="M484.6,52.8h-25.4V27.4c0-14-11.4-25.4-25.4-25.4c-14,0-25.4,11.4-25.4,25.4v25.4h-50.8V27.4c0-14-11.4-25.4-25.4-25.4   c-14,0-25.4,11.4-25.4,25.4v25.4H205.2V27.4c0-14-11.4-25.4-25.4-25.4c-14,0-25.4,11.4-25.4,25.4v25.4h-50.8V27.4   c0-14-11.4-25.4-25.4-25.4S52.8,13.4,52.8,27.4v25.4H27.4C13.4,52.8,2,64.2,2,78.2v406.4c0,14,11.4,25.4,25.4,25.4h370.5   c6.7,0,13.2-2.7,18-7.4l86.7-86.7c4.8-4.8,7.4-11.2,7.4-18V78.2C510,64.2,498.6,52.8,484.6,52.8z M459.2,372.8   c0,5.6-4.5,10.2-10.2,10.2h-55.7c-5.6,0-10.2,4.5-10.2,10.2V449c0,5.6-4.5,10.2-10.2,10.2H63c-5.6,0-10.2-4.5-10.2-10.2V164.6   c0-5.6,4.5-10.2,10.2-10.2H449c5.6,0,10.2,4.5,10.2,10.2V372.8z"></path><path fill="#95a4b6" d="M169.6,205.2h-30.5c-5.6,0-10.2,4.5-10.2,10.2v30.5c0,5.6,4.5,10.2,10.2,10.2h30.5c5.6,0,10.2-4.5,10.2-10.2v-30.5   C179.8,209.7,175.3,205.2,169.6,205.2z"></path><path fill="#95a4b6" d="M271.2,205.2h-30.5c-5.6,0-10.2,4.5-10.2,10.2v30.5c0,5.6,4.5,10.2,10.2,10.2h30.5c5.6,0,10.2-4.5,10.2-10.2v-30.5   C281.4,209.7,276.9,205.2,271.2,205.2z"></path><path fill="#95a4b6" d="M372.8,205.2h-30.5c-5.6,0-10.2,4.5-10.2,10.2v30.5c0,5.6,4.5,10.2,10.2,10.2h30.5c5.6,0,10.2-4.5,10.2-10.2v-30.5   C383,209.7,378.5,205.2,372.8,205.2z"></path><path fill="#95a4b6" d="M169.6,306.8h-30.5c-5.6,0-10.2,4.5-10.2,10.2v30.5c0,5.6,4.5,10.2,10.2,10.2h30.5c5.6,0,10.2-4.5,10.2-10.2V317   C179.8,311.3,175.3,306.8,169.6,306.8z"></path><path fill="#95a4b6" d="M271.2,306.8h-30.5c-5.6,0-10.2,4.5-10.2,10.2v30.5c0,5.6,4.5,10.2,10.2,10.2h30.5c5.6,0,10.2-4.5,10.2-10.2V317   C281.4,311.3,276.9,306.8,271.2,306.8z"></path><path fill="#95a4b6" d="M372.8,306.8h-30.5c-5.6,0-10.2,4.5-10.2,10.2v30.5c0,5.6,4.5,10.2,10.2,10.2h30.5c5.6,0,10.2-4.5,10.2-10.2V317   C383,311.3,378.5,306.8,372.8,306.8z"></path></g></svg>